G75*
G70*
%OFA0B0*%
%FSLAX24Y24*%
%IPPOS*%
%LPD*%
%AMOC8*
5,1,8,0,0,1.08239X$1,22.5*
%
%ADD10C,0.0000*%
%ADD11C,0.0520*%
%ADD12R,0.0591X0.0157*%
%ADD13R,0.0700X0.2000*%
%ADD14R,0.0433X0.0394*%
%ADD15R,0.0591X0.0512*%
%ADD16R,0.0394X0.0433*%
%ADD17R,0.0787X0.1575*%
%ADD18R,0.0591X0.1181*%
%ADD19R,0.0600X0.0300*%
%ADD20C,0.0100*%
%ADD21C,0.0317*%
%ADD22C,0.0120*%
%ADD23C,0.0160*%
D10*
X000282Y000282D02*
X000282Y008152D01*
X019774Y008152D01*
X019774Y000282D01*
X000282Y000282D01*
X010856Y001157D02*
X010858Y001204D01*
X010864Y001250D01*
X010874Y001296D01*
X010887Y001341D01*
X010905Y001384D01*
X010926Y001426D01*
X010950Y001466D01*
X010978Y001503D01*
X011009Y001538D01*
X011043Y001571D01*
X011079Y001600D01*
X011118Y001626D01*
X011159Y001649D01*
X011202Y001668D01*
X011246Y001684D01*
X011291Y001696D01*
X011337Y001704D01*
X011384Y001708D01*
X011430Y001708D01*
X011477Y001704D01*
X011523Y001696D01*
X011568Y001684D01*
X011612Y001668D01*
X011655Y001649D01*
X011696Y001626D01*
X011735Y001600D01*
X011771Y001571D01*
X011805Y001538D01*
X011836Y001503D01*
X011864Y001466D01*
X011888Y001426D01*
X011909Y001384D01*
X011927Y001341D01*
X011940Y001296D01*
X011950Y001250D01*
X011956Y001204D01*
X011958Y001157D01*
X011956Y001110D01*
X011950Y001064D01*
X011940Y001018D01*
X011927Y000973D01*
X011909Y000930D01*
X011888Y000888D01*
X011864Y000848D01*
X011836Y000811D01*
X011805Y000776D01*
X011771Y000743D01*
X011735Y000714D01*
X011696Y000688D01*
X011655Y000665D01*
X011612Y000646D01*
X011568Y000630D01*
X011523Y000618D01*
X011477Y000610D01*
X011430Y000606D01*
X011384Y000606D01*
X011337Y000610D01*
X011291Y000618D01*
X011246Y000630D01*
X011202Y000646D01*
X011159Y000665D01*
X011118Y000688D01*
X011079Y000714D01*
X011043Y000743D01*
X011009Y000776D01*
X010978Y000811D01*
X010950Y000848D01*
X010926Y000888D01*
X010905Y000930D01*
X010887Y000973D01*
X010874Y001018D01*
X010864Y001064D01*
X010858Y001110D01*
X010856Y001157D01*
X013152Y002282D02*
X013154Y002332D01*
X013160Y002382D01*
X013170Y002431D01*
X013184Y002479D01*
X013201Y002526D01*
X013222Y002571D01*
X013247Y002615D01*
X013275Y002656D01*
X013307Y002695D01*
X013341Y002732D01*
X013378Y002766D01*
X013418Y002796D01*
X013460Y002823D01*
X013504Y002847D01*
X013550Y002868D01*
X013597Y002884D01*
X013645Y002897D01*
X013695Y002906D01*
X013744Y002911D01*
X013795Y002912D01*
X013845Y002909D01*
X013894Y002902D01*
X013943Y002891D01*
X013991Y002876D01*
X014037Y002858D01*
X014082Y002836D01*
X014125Y002810D01*
X014166Y002781D01*
X014205Y002749D01*
X014241Y002714D01*
X014273Y002676D01*
X014303Y002636D01*
X014330Y002593D01*
X014353Y002549D01*
X014372Y002503D01*
X014388Y002455D01*
X014400Y002406D01*
X014408Y002357D01*
X014412Y002307D01*
X014412Y002257D01*
X014408Y002207D01*
X014400Y002158D01*
X014388Y002109D01*
X014372Y002061D01*
X014353Y002015D01*
X014330Y001971D01*
X014303Y001928D01*
X014273Y001888D01*
X014241Y001850D01*
X014205Y001815D01*
X014166Y001783D01*
X014125Y001754D01*
X014082Y001728D01*
X014037Y001706D01*
X013991Y001688D01*
X013943Y001673D01*
X013894Y001662D01*
X013845Y001655D01*
X013795Y001652D01*
X013744Y001653D01*
X013695Y001658D01*
X013645Y001667D01*
X013597Y001680D01*
X013550Y001696D01*
X013504Y001717D01*
X013460Y001741D01*
X013418Y001768D01*
X013378Y001798D01*
X013341Y001832D01*
X013307Y001869D01*
X013275Y001908D01*
X013247Y001949D01*
X013222Y001993D01*
X013201Y002038D01*
X013184Y002085D01*
X013170Y002133D01*
X013160Y002182D01*
X013154Y002232D01*
X013152Y002282D01*
D11*
X012782Y004282D03*
X011782Y004282D03*
X013782Y004282D03*
X014782Y004282D03*
X015782Y004282D03*
X016782Y004282D03*
X017782Y004282D03*
X018782Y004282D03*
X018782Y007282D03*
X017782Y007282D03*
X016782Y007282D03*
X015782Y007282D03*
X014782Y007282D03*
X013782Y007282D03*
X012782Y007282D03*
X011782Y007282D03*
D12*
X008709Y004934D03*
X008709Y004678D03*
X008709Y004422D03*
X008709Y004166D03*
X008709Y003910D03*
X008709Y003654D03*
X008709Y003398D03*
X008709Y003142D03*
X008709Y002887D03*
X008709Y002631D03*
X005855Y002631D03*
X005855Y002887D03*
X005855Y003142D03*
X005855Y003398D03*
X005855Y003654D03*
X005855Y003910D03*
X005855Y004166D03*
X005855Y004422D03*
X005855Y004678D03*
X005855Y004934D03*
D13*
X002782Y006182D03*
X002782Y002382D03*
D14*
X004448Y005282D03*
X005117Y005282D03*
X009948Y004782D03*
X010617Y004782D03*
D15*
X004282Y006408D03*
X004282Y007156D03*
D16*
X001282Y006617D03*
X001282Y005948D03*
X004448Y003782D03*
X005117Y003782D03*
X005117Y002782D03*
X004448Y002782D03*
X001282Y002617D03*
X001282Y001948D03*
D17*
X005782Y007282D03*
X006782Y007282D03*
X007782Y007282D03*
X008782Y007282D03*
D18*
X009782Y007407D03*
X010782Y007407D03*
D19*
X011782Y006532D03*
X013782Y006532D03*
X016782Y006532D03*
X018782Y006532D03*
X018782Y005032D03*
X016782Y005032D03*
X013782Y005032D03*
X011782Y005032D03*
D20*
X011807Y005012D02*
X013757Y005012D01*
X013757Y005007D02*
X013332Y005007D01*
X013332Y004862D01*
X013342Y004824D01*
X013362Y004790D01*
X013390Y004762D01*
X013424Y004742D01*
X013462Y004732D01*
X013757Y004732D01*
X013757Y005007D01*
X013807Y005007D01*
X013807Y004732D01*
X014072Y004732D01*
X014072Y004572D01*
X014014Y004630D01*
X013864Y004692D01*
X013701Y004692D01*
X013550Y004630D01*
X013435Y004514D01*
X013372Y004364D01*
X013372Y004201D01*
X013435Y004050D01*
X013492Y003992D01*
X013072Y003992D01*
X013130Y004050D01*
X013192Y004201D01*
X013192Y004364D01*
X013130Y004514D01*
X013014Y004630D01*
X012864Y004692D01*
X012701Y004692D01*
X012550Y004630D01*
X012435Y004514D01*
X012372Y004364D01*
X012372Y004201D01*
X012435Y004050D01*
X012492Y003992D01*
X012072Y003992D01*
X012130Y004050D01*
X012192Y004201D01*
X012192Y004364D01*
X012130Y004514D01*
X012014Y004630D01*
X011864Y004692D01*
X011701Y004692D01*
X011550Y004630D01*
X011492Y004572D01*
X011492Y004732D01*
X011757Y004732D01*
X011757Y005007D01*
X011807Y005007D01*
X011807Y004732D01*
X012102Y004732D01*
X012140Y004742D01*
X012174Y004762D01*
X012202Y004790D01*
X012222Y004824D01*
X012232Y004862D01*
X012232Y005007D01*
X011807Y005007D01*
X011807Y005057D01*
X012232Y005057D01*
X012232Y005197D01*
X013195Y005197D01*
X013332Y005197D01*
X013332Y005057D01*
X013757Y005057D01*
X013757Y005007D01*
X013757Y005057D02*
X013757Y005332D01*
X013504Y005332D01*
X013744Y005572D01*
X014070Y005572D01*
X014244Y005572D01*
X014492Y005820D01*
X014492Y005994D01*
X014492Y006695D01*
X014492Y006869D01*
X014183Y007178D01*
X014192Y007201D01*
X014192Y007364D01*
X014130Y007514D01*
X014014Y007630D01*
X013864Y007692D01*
X013701Y007692D01*
X013550Y007630D01*
X013435Y007514D01*
X013372Y007364D01*
X013372Y007201D01*
X013435Y007050D01*
X013550Y006935D01*
X013701Y006872D01*
X013864Y006872D01*
X013886Y006881D01*
X013935Y006832D01*
X013420Y006832D01*
X013350Y006762D01*
X012214Y006762D01*
X012144Y006832D01*
X011420Y006832D01*
X011332Y006744D01*
X011332Y006742D01*
X011215Y006742D01*
X011227Y006754D01*
X011227Y008002D01*
X019624Y008002D01*
X019624Y000432D01*
X000432Y000432D01*
X000432Y008002D01*
X005239Y008002D01*
X005239Y006689D01*
X005213Y006663D01*
X005207Y006669D01*
X005094Y006716D01*
X004971Y006716D01*
X004857Y006669D01*
X004807Y006618D01*
X004727Y006618D01*
X004727Y006726D01*
X004671Y006782D01*
X004697Y006808D01*
X004717Y006842D01*
X004727Y006881D01*
X004727Y007106D01*
X004332Y007106D01*
X004332Y007206D01*
X004727Y007206D01*
X004727Y007432D01*
X004717Y007470D01*
X004697Y007504D01*
X004670Y007532D01*
X004635Y007552D01*
X004597Y007562D01*
X004332Y007562D01*
X004332Y007206D01*
X004232Y007206D01*
X004232Y007106D01*
X003837Y007106D01*
X003837Y006881D01*
X003847Y006842D01*
X003867Y006808D01*
X003893Y006782D01*
X003837Y006726D01*
X003837Y006090D01*
X003925Y006002D01*
X004072Y006002D01*
X004072Y005945D01*
X004195Y005822D01*
X004388Y005629D01*
X004211Y005629D01*
X004173Y005619D01*
X004139Y005599D01*
X004111Y005571D01*
X004091Y005537D01*
X004081Y005499D01*
X004081Y005331D01*
X004399Y005331D01*
X004399Y005234D01*
X004081Y005234D01*
X004081Y005066D01*
X004091Y005027D01*
X004111Y004993D01*
X004139Y004965D01*
X004173Y004946D01*
X004211Y004935D01*
X004399Y004935D01*
X004399Y005234D01*
X004496Y005234D01*
X004496Y004935D01*
X004684Y004935D01*
X004722Y004946D01*
X004756Y004965D01*
X004782Y004991D01*
X004838Y004935D01*
X005167Y004935D01*
X005214Y004888D01*
X002992Y004888D01*
X002992Y005032D01*
X003194Y005032D01*
X003282Y005120D01*
X003282Y007244D01*
X003194Y007332D01*
X002370Y007332D01*
X002282Y007244D01*
X002282Y006827D01*
X001629Y006827D01*
X001629Y006896D01*
X001541Y006983D01*
X002282Y006983D01*
X002282Y006885D02*
X001629Y006885D01*
X001541Y006983D02*
X001023Y006983D01*
X000432Y006983D01*
X000432Y006885D02*
X000935Y006885D01*
X000935Y006896D02*
X000935Y006338D01*
X000991Y006282D01*
X000965Y006256D01*
X000946Y006222D01*
X000935Y006184D01*
X000935Y005996D01*
X001234Y005996D01*
X001234Y005899D01*
X001331Y005899D01*
X001331Y005996D01*
X001629Y005996D01*
X001629Y006184D01*
X001619Y006222D01*
X001599Y006256D01*
X001573Y006282D01*
X001629Y006338D01*
X001629Y006407D01*
X002282Y006407D01*
X002282Y005120D01*
X002370Y005032D01*
X002572Y005032D01*
X002572Y004695D01*
X002695Y004572D01*
X002735Y004532D01*
X002695Y004492D01*
X002572Y004369D01*
X002572Y003532D01*
X002370Y003532D01*
X002282Y003444D01*
X002282Y002158D01*
X001629Y002158D01*
X001629Y002226D01*
X001573Y002282D01*
X001599Y002308D01*
X001619Y002342D01*
X001629Y002381D01*
X001629Y002568D01*
X001331Y002568D01*
X001331Y002665D01*
X001629Y002665D01*
X001629Y002853D01*
X001619Y002891D01*
X001599Y002925D01*
X001571Y002953D01*
X001537Y002973D01*
X001499Y002983D01*
X001331Y002983D01*
X001331Y002666D01*
X001234Y002666D01*
X001234Y002983D01*
X001066Y002983D01*
X001027Y002973D01*
X000993Y002953D01*
X000965Y002925D01*
X000946Y002891D01*
X000935Y002853D01*
X000935Y002665D01*
X001234Y002665D01*
X001234Y002568D01*
X000935Y002568D01*
X000935Y002381D01*
X000946Y002342D01*
X000965Y002308D01*
X000991Y002282D01*
X000935Y002226D01*
X000935Y001669D01*
X001023Y001581D01*
X001541Y001581D01*
X001629Y001669D01*
X001629Y001738D01*
X002282Y001738D01*
X002282Y001320D01*
X002370Y001232D01*
X003194Y001232D01*
X003282Y001320D01*
X003282Y003444D01*
X003194Y003532D01*
X002992Y003532D01*
X002992Y004195D01*
X003009Y004212D01*
X005250Y004212D01*
X005186Y004149D01*
X004858Y004149D01*
X004782Y004073D01*
X004707Y004149D01*
X004189Y004149D01*
X004101Y004061D01*
X004101Y004025D01*
X004082Y004044D01*
X003969Y004091D01*
X003846Y004091D01*
X003732Y004044D01*
X003646Y003957D01*
X003599Y003844D01*
X003599Y003721D01*
X003646Y003607D01*
X003732Y003521D01*
X003846Y003474D01*
X003969Y003474D01*
X004082Y003521D01*
X004101Y003540D01*
X004101Y003504D01*
X004189Y003416D01*
X004238Y003416D01*
X004238Y003149D01*
X004189Y003149D01*
X004101Y003061D01*
X004101Y002504D01*
X004189Y002416D01*
X004707Y002416D01*
X004782Y002491D01*
X004858Y002416D01*
X004907Y002416D01*
X004907Y002285D01*
X004907Y002111D01*
X005136Y001882D01*
X005146Y001857D01*
X005232Y001771D01*
X005346Y001724D01*
X005469Y001724D01*
X005582Y001771D01*
X005669Y001857D01*
X005716Y001971D01*
X005716Y002094D01*
X005669Y002207D01*
X005582Y002294D01*
X005469Y002341D01*
X005346Y002341D01*
X005327Y002333D01*
X005327Y002416D01*
X005376Y002416D01*
X005430Y002470D01*
X005498Y002402D01*
X006212Y002402D01*
X006231Y002421D01*
X006472Y002421D01*
X007322Y001570D01*
X007322Y001508D01*
X007271Y001457D01*
X007224Y001344D01*
X007224Y001221D01*
X007271Y001107D01*
X007357Y001021D01*
X007471Y000974D01*
X007594Y000974D01*
X007707Y001021D01*
X007794Y001107D01*
X007841Y001221D01*
X007841Y001344D01*
X007794Y001457D01*
X007742Y001508D01*
X007742Y001525D01*
X008322Y000945D01*
X008445Y000822D01*
X009445Y000822D01*
X009619Y000822D01*
X012119Y003322D01*
X014445Y003322D01*
X014619Y003322D01*
X014869Y003572D01*
X014992Y003695D01*
X014992Y003925D01*
X015014Y003935D01*
X015130Y004050D01*
X015192Y004201D01*
X015192Y004364D01*
X015130Y004514D01*
X015014Y004630D01*
X014864Y004692D01*
X014701Y004692D01*
X014550Y004630D01*
X014492Y004572D01*
X014492Y005195D01*
X014869Y005572D01*
X014992Y005695D01*
X014992Y006925D01*
X015014Y006935D01*
X015130Y007050D01*
X015192Y007201D01*
X015192Y007364D01*
X015130Y007514D01*
X015014Y007630D01*
X014864Y007692D01*
X014701Y007692D01*
X014550Y007630D01*
X014435Y007514D01*
X014372Y007364D01*
X014372Y007201D01*
X014435Y007050D01*
X014550Y006935D01*
X014572Y006925D01*
X014572Y005869D01*
X014195Y005492D01*
X014072Y005369D01*
X014072Y005332D01*
X013807Y005332D01*
X013807Y005057D01*
X013757Y005057D01*
X013757Y005111D02*
X013807Y005111D01*
X013807Y005209D02*
X013757Y005209D01*
X013757Y005308D02*
X013807Y005308D01*
X013578Y005406D02*
X014109Y005406D01*
X014208Y005505D02*
X013677Y005505D01*
X013280Y005702D02*
X013083Y005702D01*
X013091Y005721D02*
X013091Y005844D01*
X013044Y005957D01*
X012957Y006044D01*
X012844Y006091D01*
X012721Y006091D01*
X012607Y006044D01*
X012556Y005992D01*
X011320Y005992D01*
X011197Y005869D01*
X010822Y005494D01*
X010822Y005320D01*
X010822Y005129D01*
X010665Y005129D01*
X010665Y004831D01*
X010568Y004831D01*
X010568Y005129D01*
X010381Y005129D01*
X010342Y005119D01*
X010308Y005099D01*
X010282Y005073D01*
X010226Y005129D01*
X009669Y005129D01*
X009581Y005041D01*
X009581Y004713D01*
X009244Y004376D01*
X009155Y004376D01*
X009155Y004537D01*
X009155Y004819D01*
X009151Y004822D01*
X009155Y004835D01*
X009155Y004934D01*
X009155Y005032D01*
X009144Y005070D01*
X009125Y005105D01*
X009097Y005133D01*
X009063Y005152D01*
X009024Y005162D01*
X008710Y005162D01*
X008710Y004934D01*
X009155Y004934D01*
X008710Y004934D01*
X008710Y004934D01*
X008709Y004934D01*
X008709Y004934D01*
X008264Y004934D01*
X008264Y005032D01*
X008274Y005070D01*
X008294Y005105D01*
X008322Y005133D01*
X008356Y005152D01*
X008394Y005162D01*
X008709Y005162D01*
X008709Y004934D01*
X008264Y004934D01*
X008264Y004888D01*
X007992Y004888D01*
X007992Y006345D01*
X008238Y006345D01*
X008282Y006389D01*
X008296Y006375D01*
X008331Y006355D01*
X008369Y006345D01*
X008732Y006345D01*
X008732Y007232D01*
X008832Y007232D01*
X008832Y006345D01*
X009196Y006345D01*
X009234Y006355D01*
X009268Y006375D01*
X009296Y006403D01*
X009316Y006437D01*
X009326Y006475D01*
X009326Y007232D01*
X008832Y007232D01*
X008832Y007332D01*
X009326Y007332D01*
X009326Y008002D01*
X009337Y008002D01*
X009337Y006754D01*
X009425Y006667D01*
X009572Y006667D01*
X009572Y006508D01*
X009521Y006457D01*
X009474Y006344D01*
X009474Y006221D01*
X009521Y006107D01*
X009607Y006021D01*
X009721Y005974D01*
X009844Y005974D01*
X009957Y006021D01*
X010044Y006107D01*
X010091Y006221D01*
X010091Y006344D01*
X010044Y006457D01*
X009992Y006508D01*
X009992Y006667D01*
X010140Y006667D01*
X010227Y006754D01*
X010227Y008002D01*
X010337Y008002D01*
X010337Y006754D01*
X010425Y006667D01*
X010504Y006667D01*
X010474Y006594D01*
X010474Y006471D01*
X010521Y006357D01*
X010607Y006271D01*
X010721Y006224D01*
X010844Y006224D01*
X010957Y006271D01*
X011008Y006322D01*
X011332Y006322D01*
X011332Y006320D01*
X011420Y006232D01*
X012144Y006232D01*
X012214Y006302D01*
X013350Y006302D01*
X013420Y006232D01*
X014072Y006232D01*
X014072Y005994D01*
X014070Y005992D01*
X013570Y005992D01*
X013447Y005869D01*
X013195Y005617D01*
X013048Y005617D01*
X013091Y005721D01*
X013091Y005801D02*
X013379Y005801D01*
X013477Y005899D02*
X013068Y005899D01*
X013003Y005998D02*
X014072Y005998D01*
X014072Y006096D02*
X010032Y006096D01*
X010080Y006195D02*
X014072Y006195D01*
X014492Y006195D02*
X014572Y006195D01*
X014572Y006293D02*
X014492Y006293D01*
X014492Y006392D02*
X014572Y006392D01*
X014572Y006490D02*
X014492Y006490D01*
X014492Y006589D02*
X014572Y006589D01*
X014572Y006688D02*
X014492Y006688D01*
X014492Y006786D02*
X014572Y006786D01*
X014572Y006885D02*
X014477Y006885D01*
X014501Y006983D02*
X014378Y006983D01*
X014421Y007082D02*
X014280Y007082D01*
X014184Y007180D02*
X014381Y007180D01*
X014372Y007279D02*
X014192Y007279D01*
X014187Y007377D02*
X014378Y007377D01*
X014419Y007476D02*
X014146Y007476D01*
X014070Y007574D02*
X014495Y007574D01*
X014654Y007673D02*
X013910Y007673D01*
X013654Y007673D02*
X012910Y007673D01*
X012864Y007692D02*
X013014Y007630D01*
X013130Y007514D01*
X013192Y007364D01*
X013192Y007201D01*
X013130Y007050D01*
X013014Y006935D01*
X012864Y006872D01*
X012701Y006872D01*
X012550Y006935D01*
X012435Y007050D01*
X012372Y007201D01*
X012372Y007364D01*
X012435Y007514D01*
X012550Y007630D01*
X012701Y007692D01*
X012864Y007692D01*
X012654Y007673D02*
X011910Y007673D01*
X011864Y007692D02*
X012014Y007630D01*
X012130Y007514D01*
X012192Y007364D01*
X012192Y007201D01*
X012130Y007050D01*
X012014Y006935D01*
X011864Y006872D01*
X011701Y006872D01*
X011550Y006935D01*
X011435Y007050D01*
X011372Y007201D01*
X011372Y007364D01*
X011435Y007514D01*
X011550Y007630D01*
X011701Y007692D01*
X011864Y007692D01*
X011654Y007673D02*
X011227Y007673D01*
X011227Y007574D02*
X011495Y007574D01*
X011419Y007476D02*
X011227Y007476D01*
X011227Y007377D02*
X011378Y007377D01*
X011372Y007279D02*
X011227Y007279D01*
X011227Y007180D02*
X011381Y007180D01*
X011421Y007082D02*
X011227Y007082D01*
X011227Y006983D02*
X011501Y006983D01*
X011671Y006885D02*
X011227Y006885D01*
X011227Y006786D02*
X011374Y006786D01*
X011894Y006885D02*
X012671Y006885D01*
X012501Y006983D02*
X012063Y006983D01*
X012143Y007082D02*
X012421Y007082D01*
X012381Y007180D02*
X012184Y007180D01*
X012192Y007279D02*
X012372Y007279D01*
X012378Y007377D02*
X012187Y007377D01*
X012146Y007476D02*
X012419Y007476D01*
X012495Y007574D02*
X012070Y007574D01*
X011227Y007771D02*
X019624Y007771D01*
X019624Y007870D02*
X011227Y007870D01*
X011227Y007969D02*
X019624Y007969D01*
X019014Y007630D02*
X018864Y007692D01*
X018701Y007692D01*
X018550Y007630D01*
X018435Y007514D01*
X018372Y007364D01*
X018372Y007201D01*
X018435Y007050D01*
X018550Y006935D01*
X018701Y006872D01*
X018864Y006872D01*
X019014Y006935D01*
X019130Y007050D01*
X019192Y007201D01*
X019192Y007364D01*
X019130Y007514D01*
X019014Y007630D01*
X019070Y007574D02*
X019624Y007574D01*
X019624Y007476D02*
X019146Y007476D01*
X019187Y007377D02*
X019624Y007377D01*
X019624Y007279D02*
X019192Y007279D01*
X019184Y007180D02*
X019624Y007180D01*
X019624Y007082D02*
X019143Y007082D01*
X019063Y006983D02*
X019624Y006983D01*
X019624Y006885D02*
X018894Y006885D01*
X018671Y006885D02*
X017894Y006885D01*
X017864Y006872D02*
X018014Y006935D01*
X018130Y007050D01*
X018192Y007201D01*
X018192Y007364D01*
X018130Y007514D01*
X018014Y007630D01*
X017864Y007692D01*
X017701Y007692D01*
X017550Y007630D01*
X017435Y007514D01*
X017372Y007364D01*
X017372Y007201D01*
X017435Y007050D01*
X017550Y006935D01*
X017701Y006872D01*
X017864Y006872D01*
X017671Y006885D02*
X016894Y006885D01*
X016864Y006872D02*
X017014Y006935D01*
X017130Y007050D01*
X017192Y007201D01*
X017192Y007364D01*
X017130Y007514D01*
X017014Y007630D01*
X016864Y007692D01*
X016701Y007692D01*
X016550Y007630D01*
X016435Y007514D01*
X016372Y007364D01*
X016372Y007201D01*
X016435Y007050D01*
X016550Y006935D01*
X016701Y006872D01*
X016864Y006872D01*
X016671Y006885D02*
X015894Y006885D01*
X015864Y006872D02*
X016014Y006935D01*
X016130Y007050D01*
X016192Y007201D01*
X016192Y007364D01*
X016130Y007514D01*
X016014Y007630D01*
X015864Y007692D01*
X015701Y007692D01*
X015550Y007630D01*
X015435Y007514D01*
X015372Y007364D01*
X015372Y007201D01*
X015435Y007050D01*
X015550Y006935D01*
X015701Y006872D01*
X015864Y006872D01*
X015671Y006885D02*
X014992Y006885D01*
X014992Y006786D02*
X016374Y006786D01*
X016332Y006744D02*
X016332Y006742D01*
X016119Y006742D01*
X015945Y006742D01*
X015794Y006591D01*
X015721Y006591D01*
X015607Y006544D01*
X015521Y006457D01*
X015474Y006344D01*
X015474Y006221D01*
X015521Y006107D01*
X015607Y006021D01*
X015721Y005974D01*
X015844Y005974D01*
X015957Y006021D01*
X016044Y006107D01*
X016091Y006221D01*
X016091Y006294D01*
X016119Y006322D01*
X016332Y006322D01*
X016332Y006320D01*
X016420Y006232D01*
X017144Y006232D01*
X017214Y006302D01*
X018350Y006302D01*
X018420Y006232D01*
X019144Y006232D01*
X019232Y006320D01*
X019232Y006744D01*
X019144Y006832D01*
X018420Y006832D01*
X018350Y006762D01*
X017214Y006762D01*
X017144Y006832D01*
X016420Y006832D01*
X016332Y006744D01*
X015891Y006688D02*
X014992Y006688D01*
X014992Y006589D02*
X015717Y006589D01*
X015554Y006490D02*
X014992Y006490D01*
X014992Y006392D02*
X015494Y006392D01*
X015474Y006293D02*
X014992Y006293D01*
X014992Y006195D02*
X015485Y006195D01*
X015532Y006096D02*
X014992Y006096D01*
X014992Y005998D02*
X015663Y005998D01*
X015901Y005998D02*
X019624Y005998D01*
X019624Y006096D02*
X016032Y006096D01*
X016080Y006195D02*
X019624Y006195D01*
X019624Y006293D02*
X019205Y006293D01*
X019232Y006392D02*
X019624Y006392D01*
X019624Y006490D02*
X019232Y006490D01*
X019232Y006589D02*
X019624Y006589D01*
X019624Y006688D02*
X019232Y006688D01*
X019190Y006786D02*
X019624Y006786D01*
X018501Y006983D02*
X018063Y006983D01*
X018143Y007082D02*
X018421Y007082D01*
X018381Y007180D02*
X018184Y007180D01*
X018192Y007279D02*
X018372Y007279D01*
X018378Y007377D02*
X018187Y007377D01*
X018146Y007476D02*
X018419Y007476D01*
X018495Y007574D02*
X018070Y007574D01*
X017910Y007673D02*
X018654Y007673D01*
X018910Y007673D02*
X019624Y007673D01*
X018374Y006786D02*
X017190Y006786D01*
X017063Y006983D02*
X017501Y006983D01*
X017421Y007082D02*
X017143Y007082D01*
X017184Y007180D02*
X017381Y007180D01*
X017372Y007279D02*
X017192Y007279D01*
X017187Y007377D02*
X017378Y007377D01*
X017419Y007476D02*
X017146Y007476D01*
X017070Y007574D02*
X017495Y007574D01*
X017654Y007673D02*
X016910Y007673D01*
X016654Y007673D02*
X015910Y007673D01*
X016070Y007574D02*
X016495Y007574D01*
X016419Y007476D02*
X016146Y007476D01*
X016187Y007377D02*
X016378Y007377D01*
X016372Y007279D02*
X016192Y007279D01*
X016184Y007180D02*
X016381Y007180D01*
X016421Y007082D02*
X016143Y007082D01*
X016063Y006983D02*
X016501Y006983D01*
X015501Y006983D02*
X015063Y006983D01*
X015143Y007082D02*
X015421Y007082D01*
X015381Y007180D02*
X015184Y007180D01*
X015192Y007279D02*
X015372Y007279D01*
X015378Y007377D02*
X015187Y007377D01*
X015146Y007476D02*
X015419Y007476D01*
X015495Y007574D02*
X015070Y007574D01*
X014910Y007673D02*
X015654Y007673D01*
X013671Y006885D02*
X012894Y006885D01*
X013063Y006983D02*
X013501Y006983D01*
X013421Y007082D02*
X013143Y007082D01*
X013184Y007180D02*
X013381Y007180D01*
X013372Y007279D02*
X013192Y007279D01*
X013187Y007377D02*
X013378Y007377D01*
X013419Y007476D02*
X013146Y007476D01*
X013070Y007574D02*
X013495Y007574D01*
X013374Y006786D02*
X012190Y006786D01*
X012205Y006293D02*
X013359Y006293D01*
X012562Y005998D02*
X009901Y005998D01*
X009663Y005998D02*
X007992Y005998D01*
X007992Y006096D02*
X009532Y006096D01*
X009485Y006195D02*
X007992Y006195D01*
X007992Y006293D02*
X009474Y006293D01*
X009494Y006392D02*
X009285Y006392D01*
X009326Y006490D02*
X009554Y006490D01*
X009572Y006589D02*
X009326Y006589D01*
X009326Y006688D02*
X009404Y006688D01*
X009337Y006786D02*
X009326Y006786D01*
X009326Y006885D02*
X009337Y006885D01*
X009326Y006983D02*
X009337Y006983D01*
X009326Y007082D02*
X009337Y007082D01*
X009326Y007180D02*
X009337Y007180D01*
X009337Y007279D02*
X008832Y007279D01*
X008832Y007180D02*
X008732Y007180D01*
X008732Y007082D02*
X008832Y007082D01*
X008832Y006983D02*
X008732Y006983D01*
X008732Y006885D02*
X008832Y006885D01*
X008832Y006786D02*
X008732Y006786D01*
X008732Y006688D02*
X008832Y006688D01*
X008832Y006589D02*
X008732Y006589D01*
X008732Y006490D02*
X008832Y006490D01*
X008832Y006392D02*
X008732Y006392D01*
X007992Y005899D02*
X011227Y005899D01*
X011129Y005801D02*
X007992Y005801D01*
X007992Y005702D02*
X011030Y005702D01*
X010932Y005604D02*
X007992Y005604D01*
X007992Y005505D02*
X010833Y005505D01*
X010822Y005406D02*
X007992Y005406D01*
X007992Y005308D02*
X010822Y005308D01*
X010822Y005209D02*
X007992Y005209D01*
X007992Y005111D02*
X008300Y005111D01*
X008264Y005012D02*
X007992Y005012D01*
X007992Y004914D02*
X008264Y004914D01*
X008709Y005012D02*
X008710Y005012D01*
X008709Y005111D02*
X008710Y005111D01*
X009118Y005111D02*
X009651Y005111D01*
X009581Y005012D02*
X009155Y005012D01*
X009155Y004914D02*
X009581Y004914D01*
X009581Y004815D02*
X009155Y004815D01*
X009155Y004717D02*
X009581Y004717D01*
X009486Y004618D02*
X009155Y004618D01*
X009155Y004520D02*
X009388Y004520D01*
X009289Y004421D02*
X009155Y004421D01*
X009704Y004242D02*
X009898Y004435D01*
X010226Y004435D01*
X010282Y004491D01*
X010308Y004465D01*
X010342Y004446D01*
X010381Y004435D01*
X010568Y004435D01*
X010568Y004734D01*
X010665Y004734D01*
X010665Y004462D01*
X010445Y004242D01*
X009704Y004242D01*
X009785Y004322D02*
X010526Y004322D01*
X010624Y004421D02*
X009883Y004421D01*
X010568Y004520D02*
X010665Y004520D01*
X010665Y004618D02*
X010568Y004618D01*
X010568Y004717D02*
X010665Y004717D01*
X010665Y004914D02*
X010568Y004914D01*
X010568Y005012D02*
X010665Y005012D01*
X010665Y005111D02*
X010568Y005111D01*
X010329Y005111D02*
X010244Y005111D01*
X011492Y004717D02*
X014072Y004717D01*
X014072Y004618D02*
X014026Y004618D01*
X013538Y004618D02*
X013026Y004618D01*
X013125Y004520D02*
X013440Y004520D01*
X013396Y004421D02*
X013168Y004421D01*
X013192Y004322D02*
X013372Y004322D01*
X013372Y004224D02*
X013192Y004224D01*
X013161Y004125D02*
X013403Y004125D01*
X013458Y004027D02*
X013107Y004027D01*
X012458Y004027D02*
X012107Y004027D01*
X012161Y004125D02*
X012403Y004125D01*
X012372Y004224D02*
X012192Y004224D01*
X012192Y004322D02*
X012372Y004322D01*
X012396Y004421D02*
X012168Y004421D01*
X012125Y004520D02*
X012440Y004520D01*
X012538Y004618D02*
X012026Y004618D01*
X011538Y004618D02*
X011492Y004618D01*
X011757Y004815D02*
X011807Y004815D01*
X011807Y004914D02*
X011757Y004914D01*
X012217Y004815D02*
X013348Y004815D01*
X013332Y004914D02*
X012232Y004914D01*
X012232Y005111D02*
X013332Y005111D01*
X013757Y004914D02*
X013807Y004914D01*
X013807Y004815D02*
X013757Y004815D01*
X014492Y004815D02*
X016348Y004815D01*
X016342Y004824D02*
X016362Y004790D01*
X016390Y004762D01*
X016424Y004742D01*
X016462Y004732D01*
X016757Y004732D01*
X016757Y005007D01*
X016807Y005007D01*
X016807Y004732D01*
X017102Y004732D01*
X017140Y004742D01*
X017174Y004762D01*
X017202Y004790D01*
X017222Y004824D01*
X017232Y004862D01*
X017232Y005007D01*
X016807Y005007D01*
X016807Y005057D01*
X016757Y005057D01*
X016757Y005007D01*
X016332Y005007D01*
X016332Y004862D01*
X016342Y004824D01*
X016332Y004914D02*
X014492Y004914D01*
X014492Y005012D02*
X016757Y005012D01*
X016757Y005057D02*
X016332Y005057D01*
X016332Y005202D01*
X016342Y005240D01*
X016362Y005274D01*
X016390Y005302D01*
X016424Y005322D01*
X016462Y005332D01*
X016757Y005332D01*
X016757Y005057D01*
X016807Y005057D02*
X016807Y005332D01*
X017102Y005332D01*
X017140Y005322D01*
X017174Y005302D01*
X017202Y005274D01*
X017222Y005240D01*
X017232Y005202D01*
X017232Y005057D01*
X016807Y005057D01*
X016807Y005012D02*
X018757Y005012D01*
X018757Y005007D02*
X018332Y005007D01*
X018332Y004862D01*
X018342Y004824D01*
X018362Y004790D01*
X018390Y004762D01*
X018424Y004742D01*
X018462Y004732D01*
X018757Y004732D01*
X018757Y005007D01*
X018807Y005007D01*
X018807Y004732D01*
X019102Y004732D01*
X019140Y004742D01*
X019174Y004762D01*
X019202Y004790D01*
X019222Y004824D01*
X019232Y004862D01*
X019232Y005007D01*
X018807Y005007D01*
X018807Y005057D01*
X018757Y005057D01*
X018757Y005007D01*
X018757Y005057D02*
X018332Y005057D01*
X018332Y005202D01*
X018342Y005240D01*
X018362Y005274D01*
X018390Y005302D01*
X018424Y005322D01*
X018462Y005332D01*
X018757Y005332D01*
X018757Y005057D01*
X018807Y005057D02*
X018807Y005332D01*
X019102Y005332D01*
X019140Y005322D01*
X019174Y005302D01*
X019202Y005274D01*
X019222Y005240D01*
X019232Y005202D01*
X019232Y005057D01*
X018807Y005057D01*
X018807Y005012D02*
X019624Y005012D01*
X019624Y004914D02*
X019232Y004914D01*
X019217Y004815D02*
X019624Y004815D01*
X019624Y004717D02*
X014492Y004717D01*
X014492Y004618D02*
X014538Y004618D01*
X015026Y004618D02*
X015538Y004618D01*
X015550Y004630D02*
X015435Y004514D01*
X015372Y004364D01*
X015372Y004201D01*
X015435Y004050D01*
X015550Y003935D01*
X015701Y003872D01*
X015864Y003872D01*
X016014Y003935D01*
X016130Y004050D01*
X016192Y004201D01*
X016192Y004364D01*
X016130Y004514D01*
X016014Y004630D01*
X015864Y004692D01*
X015701Y004692D01*
X015550Y004630D01*
X015440Y004520D02*
X015125Y004520D01*
X015168Y004421D02*
X015396Y004421D01*
X015372Y004322D02*
X015192Y004322D01*
X015192Y004224D02*
X015372Y004224D01*
X015403Y004125D02*
X015161Y004125D01*
X015107Y004027D02*
X015458Y004027D01*
X015565Y003928D02*
X014999Y003928D01*
X014992Y003830D02*
X019624Y003830D01*
X019624Y003928D02*
X018991Y003928D01*
X018997Y003932D02*
X019049Y003969D01*
X019095Y004015D01*
X019133Y004067D01*
X019162Y004125D01*
X019182Y004186D01*
X019192Y004250D01*
X019192Y004252D01*
X018812Y004252D01*
X018812Y003872D01*
X018814Y003872D01*
X018878Y003882D01*
X018940Y003902D01*
X018997Y003932D01*
X019103Y004027D02*
X019624Y004027D01*
X019624Y004125D02*
X019162Y004125D01*
X019188Y004224D02*
X019624Y004224D01*
X019624Y004322D02*
X019191Y004322D01*
X019192Y004314D02*
X019182Y004378D01*
X019162Y004440D01*
X019133Y004497D01*
X019095Y004549D01*
X019049Y004595D01*
X018997Y004633D01*
X018940Y004662D01*
X018878Y004682D01*
X018814Y004692D01*
X018812Y004692D01*
X018812Y004312D01*
X018752Y004312D01*
X018752Y004252D01*
X018372Y004252D01*
X018372Y004250D01*
X018382Y004186D01*
X018402Y004125D01*
X018432Y004067D01*
X018469Y004015D01*
X018515Y003969D01*
X018567Y003932D01*
X018625Y003902D01*
X018686Y003882D01*
X018750Y003872D01*
X018752Y003872D01*
X018752Y004252D01*
X018812Y004252D01*
X018812Y004312D01*
X019192Y004312D01*
X019192Y004314D01*
X019168Y004421D02*
X019624Y004421D01*
X019624Y004520D02*
X019117Y004520D01*
X019017Y004618D02*
X019624Y004618D01*
X018812Y004618D02*
X018752Y004618D01*
X018750Y004692D02*
X018686Y004682D01*
X018625Y004662D01*
X018567Y004633D01*
X018515Y004595D01*
X018469Y004549D01*
X018432Y004497D01*
X018402Y004440D01*
X018382Y004378D01*
X018372Y004314D01*
X018372Y004312D01*
X018752Y004312D01*
X018752Y004692D01*
X018750Y004692D01*
X018547Y004618D02*
X018026Y004618D01*
X018014Y004630D02*
X017864Y004692D01*
X017701Y004692D01*
X017550Y004630D01*
X017435Y004514D01*
X017372Y004364D01*
X017372Y004201D01*
X017435Y004050D01*
X017550Y003935D01*
X017701Y003872D01*
X017864Y003872D01*
X018014Y003935D01*
X018130Y004050D01*
X018192Y004201D01*
X018192Y004364D01*
X018130Y004514D01*
X018014Y004630D01*
X018125Y004520D02*
X018448Y004520D01*
X018396Y004421D02*
X018168Y004421D01*
X018192Y004322D02*
X018374Y004322D01*
X018376Y004224D02*
X018192Y004224D01*
X018161Y004125D02*
X018402Y004125D01*
X018461Y004027D02*
X018107Y004027D01*
X017999Y003928D02*
X018574Y003928D01*
X018752Y003928D02*
X018812Y003928D01*
X018812Y004027D02*
X018752Y004027D01*
X018752Y004125D02*
X018812Y004125D01*
X018812Y004224D02*
X018752Y004224D01*
X018752Y004322D02*
X018812Y004322D01*
X018812Y004421D02*
X018752Y004421D01*
X018752Y004520D02*
X018812Y004520D01*
X018807Y004815D02*
X018757Y004815D01*
X018757Y004914D02*
X018807Y004914D01*
X018807Y005111D02*
X018757Y005111D01*
X018757Y005209D02*
X018807Y005209D01*
X018807Y005308D02*
X018757Y005308D01*
X018400Y005308D02*
X017164Y005308D01*
X017230Y005209D02*
X018334Y005209D01*
X018332Y005111D02*
X017232Y005111D01*
X017232Y004914D02*
X018332Y004914D01*
X018348Y004815D02*
X017217Y004815D01*
X017014Y004630D02*
X016864Y004692D01*
X016701Y004692D01*
X016550Y004630D01*
X016435Y004514D01*
X016372Y004364D01*
X016372Y004201D01*
X016435Y004050D01*
X016550Y003935D01*
X016701Y003872D01*
X016864Y003872D01*
X017014Y003935D01*
X017130Y004050D01*
X017192Y004201D01*
X017192Y004364D01*
X017130Y004514D01*
X017014Y004630D01*
X017026Y004618D02*
X017538Y004618D01*
X017440Y004520D02*
X017125Y004520D01*
X017168Y004421D02*
X017396Y004421D01*
X017372Y004322D02*
X017192Y004322D01*
X017192Y004224D02*
X017372Y004224D01*
X017403Y004125D02*
X017161Y004125D01*
X017107Y004027D02*
X017458Y004027D01*
X017565Y003928D02*
X016999Y003928D01*
X016565Y003928D02*
X015999Y003928D01*
X016107Y004027D02*
X016458Y004027D01*
X016403Y004125D02*
X016161Y004125D01*
X016192Y004224D02*
X016372Y004224D01*
X016372Y004322D02*
X016192Y004322D01*
X016168Y004421D02*
X016396Y004421D01*
X016440Y004520D02*
X016125Y004520D01*
X016026Y004618D02*
X016538Y004618D01*
X016757Y004815D02*
X016807Y004815D01*
X016807Y004914D02*
X016757Y004914D01*
X016757Y005111D02*
X016807Y005111D01*
X016807Y005209D02*
X016757Y005209D01*
X016757Y005308D02*
X016807Y005308D01*
X016400Y005308D02*
X014605Y005308D01*
X014506Y005209D02*
X016334Y005209D01*
X016332Y005111D02*
X014492Y005111D01*
X014703Y005406D02*
X019624Y005406D01*
X019624Y005505D02*
X014802Y005505D01*
X014901Y005604D02*
X019624Y005604D01*
X019624Y005702D02*
X014992Y005702D01*
X014992Y005801D02*
X019624Y005801D01*
X019624Y005899D02*
X014992Y005899D01*
X014572Y005899D02*
X014492Y005899D01*
X014504Y005801D02*
X014473Y005801D01*
X014405Y005702D02*
X014374Y005702D01*
X014307Y005604D02*
X014276Y005604D01*
X014492Y005998D02*
X014572Y005998D01*
X014572Y006096D02*
X014492Y006096D01*
X016091Y006293D02*
X016359Y006293D01*
X017205Y006293D02*
X018359Y006293D01*
X019164Y005308D02*
X019624Y005308D01*
X019624Y005209D02*
X019230Y005209D01*
X019232Y005111D02*
X019624Y005111D01*
X019624Y003731D02*
X014992Y003731D01*
X014930Y003633D02*
X019624Y003633D01*
X019624Y003534D02*
X014831Y003534D01*
X014733Y003436D02*
X019624Y003436D01*
X019624Y003337D02*
X014634Y003337D01*
X014224Y002943D02*
X013937Y003062D01*
X013627Y003062D01*
X013340Y002943D01*
X011740Y002943D01*
X011641Y002844D02*
X013241Y002844D01*
X013143Y002746D02*
X011543Y002746D01*
X011444Y002647D02*
X013089Y002647D01*
X013121Y002724D02*
X013002Y002437D01*
X013002Y002127D01*
X013121Y001840D01*
X013340Y001621D01*
X013627Y001502D01*
X013937Y001502D01*
X014224Y001621D01*
X014443Y001840D01*
X014562Y002127D01*
X014562Y002437D01*
X014443Y002724D01*
X014224Y002943D01*
X019624Y002943D01*
X019624Y002844D02*
X014323Y002844D01*
X014422Y002746D02*
X019624Y002746D01*
X019624Y002647D02*
X014475Y002647D01*
X014516Y002549D02*
X019624Y002549D01*
X019624Y002450D02*
X014557Y002450D01*
X014562Y002352D02*
X019624Y002352D01*
X019624Y002253D02*
X014562Y002253D01*
X014562Y002155D02*
X019624Y002155D01*
X019624Y002056D02*
X014533Y002056D01*
X014492Y001957D02*
X019624Y001957D01*
X019624Y001859D02*
X014451Y001859D01*
X014363Y001760D02*
X019624Y001760D01*
X019624Y001662D02*
X014265Y001662D01*
X014085Y001563D02*
X019624Y001563D01*
X019624Y001465D02*
X012039Y001465D01*
X012002Y001554D02*
X011804Y001752D01*
X011547Y001858D01*
X011268Y001858D01*
X011010Y001752D01*
X010813Y001554D01*
X010706Y001297D01*
X010706Y001018D01*
X010813Y000760D01*
X011010Y000563D01*
X011268Y000456D01*
X011547Y000456D01*
X011804Y000563D01*
X012002Y000760D01*
X012108Y001018D01*
X012108Y001297D01*
X012002Y001554D01*
X011993Y001563D02*
X013480Y001563D01*
X013300Y001662D02*
X011894Y001662D01*
X011783Y001760D02*
X013201Y001760D01*
X013113Y001859D02*
X010656Y001859D01*
X010754Y001957D02*
X013073Y001957D01*
X013032Y002056D02*
X010853Y002056D01*
X010951Y002155D02*
X013002Y002155D01*
X013002Y002253D02*
X011050Y002253D01*
X011149Y002352D02*
X013002Y002352D01*
X013008Y002450D02*
X011247Y002450D01*
X011346Y002549D02*
X013048Y002549D01*
X013121Y002724D02*
X013340Y002943D01*
X013577Y003041D02*
X011838Y003041D01*
X011937Y003140D02*
X019624Y003140D01*
X019624Y003239D02*
X012035Y003239D01*
X013987Y003041D02*
X019624Y003041D01*
X019624Y001366D02*
X012080Y001366D01*
X012108Y001268D02*
X019624Y001268D01*
X019624Y001169D02*
X012108Y001169D01*
X012108Y001071D02*
X019624Y001071D01*
X019624Y000972D02*
X012089Y000972D01*
X012049Y000873D02*
X019624Y000873D01*
X019624Y000775D02*
X012008Y000775D01*
X011918Y000676D02*
X019624Y000676D01*
X019624Y000578D02*
X011819Y000578D01*
X011603Y000479D02*
X019624Y000479D01*
X011211Y000479D02*
X000432Y000479D01*
X000432Y000578D02*
X010995Y000578D01*
X010896Y000676D02*
X000432Y000676D01*
X000432Y000775D02*
X010807Y000775D01*
X010766Y000873D02*
X009670Y000873D01*
X009769Y000972D02*
X010725Y000972D01*
X010706Y001071D02*
X009868Y001071D01*
X009966Y001169D02*
X010706Y001169D01*
X010706Y001268D02*
X010065Y001268D01*
X010163Y001366D02*
X010735Y001366D01*
X010776Y001465D02*
X010262Y001465D01*
X010360Y001563D02*
X010822Y001563D01*
X010920Y001662D02*
X010459Y001662D01*
X010557Y001760D02*
X011031Y001760D01*
X008394Y000873D02*
X000432Y000873D01*
X000432Y000972D02*
X008295Y000972D01*
X008197Y001071D02*
X007757Y001071D01*
X007819Y001169D02*
X008098Y001169D01*
X008000Y001268D02*
X007841Y001268D01*
X007831Y001366D02*
X007901Y001366D01*
X007803Y001465D02*
X007786Y001465D01*
X007322Y001563D02*
X003282Y001563D01*
X003282Y001465D02*
X007279Y001465D01*
X007233Y001366D02*
X003282Y001366D01*
X003230Y001268D02*
X007224Y001268D01*
X007245Y001169D02*
X000432Y001169D01*
X000432Y001071D02*
X007308Y001071D01*
X007231Y001662D02*
X003282Y001662D01*
X003282Y001760D02*
X005258Y001760D01*
X005557Y001760D02*
X007132Y001760D01*
X007034Y001859D02*
X005669Y001859D01*
X005710Y001957D02*
X006935Y001957D01*
X006836Y002056D02*
X005716Y002056D01*
X005690Y002155D02*
X006738Y002155D01*
X006639Y002253D02*
X005622Y002253D01*
X005327Y002352D02*
X006541Y002352D01*
X005449Y002450D02*
X005410Y002450D01*
X004907Y002352D02*
X003282Y002352D01*
X003282Y002253D02*
X004907Y002253D01*
X004907Y002155D02*
X003282Y002155D01*
X003282Y002056D02*
X004961Y002056D01*
X005060Y001957D02*
X003282Y001957D01*
X003282Y001859D02*
X005145Y001859D01*
X004823Y002450D02*
X004741Y002450D01*
X004154Y002450D02*
X003282Y002450D01*
X003282Y002549D02*
X004101Y002549D01*
X004101Y002647D02*
X003282Y002647D01*
X003282Y002746D02*
X004101Y002746D01*
X004101Y002844D02*
X003282Y002844D01*
X003282Y002943D02*
X004101Y002943D01*
X004101Y003041D02*
X003282Y003041D01*
X003282Y003140D02*
X004180Y003140D01*
X004238Y003239D02*
X003282Y003239D01*
X003282Y003337D02*
X004238Y003337D01*
X004169Y003436D02*
X003282Y003436D01*
X002992Y003534D02*
X003719Y003534D01*
X003635Y003633D02*
X002992Y003633D01*
X002992Y003731D02*
X003599Y003731D01*
X003599Y003830D02*
X002992Y003830D01*
X002992Y003928D02*
X003634Y003928D01*
X003716Y004027D02*
X002992Y004027D01*
X002992Y004125D02*
X004165Y004125D01*
X004101Y004027D02*
X004099Y004027D01*
X004730Y004125D02*
X004835Y004125D01*
X004101Y003534D02*
X004095Y003534D01*
X002572Y003534D02*
X000432Y003534D01*
X000432Y003436D02*
X002282Y003436D01*
X002282Y003337D02*
X000432Y003337D01*
X000432Y003239D02*
X002282Y003239D01*
X002282Y003140D02*
X000432Y003140D01*
X000432Y003041D02*
X002282Y003041D01*
X002282Y002943D02*
X001582Y002943D01*
X001629Y002844D02*
X002282Y002844D01*
X002282Y002746D02*
X001629Y002746D01*
X001629Y002549D02*
X002282Y002549D01*
X002282Y002647D02*
X001331Y002647D01*
X001234Y002647D02*
X000432Y002647D01*
X000432Y002549D02*
X000935Y002549D01*
X000935Y002450D02*
X000432Y002450D01*
X000432Y002352D02*
X000943Y002352D01*
X000962Y002253D02*
X000432Y002253D01*
X000432Y002155D02*
X000935Y002155D01*
X000935Y002056D02*
X000432Y002056D01*
X000432Y001957D02*
X000935Y001957D01*
X000935Y001859D02*
X000432Y001859D01*
X000432Y001760D02*
X000935Y001760D01*
X000942Y001662D02*
X000432Y001662D01*
X000432Y001563D02*
X002282Y001563D01*
X002282Y001465D02*
X000432Y001465D01*
X000432Y001366D02*
X002282Y001366D01*
X002335Y001268D02*
X000432Y001268D01*
X001622Y001662D02*
X002282Y001662D01*
X002282Y002253D02*
X001602Y002253D01*
X001621Y002352D02*
X002282Y002352D01*
X002282Y002450D02*
X001629Y002450D01*
X001331Y002746D02*
X001234Y002746D01*
X001234Y002844D02*
X001331Y002844D01*
X001331Y002943D02*
X001234Y002943D01*
X000983Y002943D02*
X000432Y002943D01*
X000432Y002844D02*
X000935Y002844D01*
X000935Y002746D02*
X000432Y002746D01*
X000432Y003633D02*
X002572Y003633D01*
X002572Y003731D02*
X000432Y003731D01*
X000432Y003830D02*
X002572Y003830D01*
X002572Y003928D02*
X000432Y003928D01*
X000432Y004027D02*
X002572Y004027D01*
X002572Y004125D02*
X000432Y004125D01*
X000432Y004224D02*
X002572Y004224D01*
X002572Y004322D02*
X000432Y004322D01*
X000432Y004421D02*
X002624Y004421D01*
X002695Y004492D02*
X002695Y004492D01*
X002723Y004520D02*
X000432Y004520D01*
X000432Y004618D02*
X002649Y004618D01*
X002572Y004717D02*
X000432Y004717D01*
X000432Y004815D02*
X002572Y004815D01*
X002572Y004914D02*
X000432Y004914D01*
X000432Y005012D02*
X002572Y005012D01*
X002291Y005111D02*
X000432Y005111D01*
X000432Y005209D02*
X002282Y005209D01*
X002282Y005308D02*
X000432Y005308D01*
X000432Y005406D02*
X002282Y005406D01*
X002282Y005505D02*
X000432Y005505D01*
X000432Y005604D02*
X001006Y005604D01*
X000993Y005611D02*
X001027Y005591D01*
X001066Y005581D01*
X001234Y005581D01*
X001234Y005899D01*
X000432Y005899D01*
X000432Y005801D02*
X000935Y005801D01*
X000935Y005711D02*
X000946Y005673D01*
X000965Y005639D01*
X000993Y005611D01*
X000938Y005702D02*
X000432Y005702D01*
X000935Y005711D02*
X000935Y005899D01*
X001234Y005899D01*
X001331Y005899D02*
X001331Y005581D01*
X001499Y005581D01*
X001537Y005591D01*
X001571Y005611D01*
X001599Y005639D01*
X001619Y005673D01*
X001629Y005711D01*
X001629Y005899D01*
X001331Y005899D01*
X002282Y005899D01*
X002282Y005801D02*
X001629Y005801D01*
X001627Y005702D02*
X002282Y005702D01*
X002282Y005604D02*
X001558Y005604D01*
X001331Y005604D02*
X001234Y005604D01*
X001234Y005702D02*
X001331Y005702D01*
X001331Y005801D02*
X001234Y005801D01*
X000935Y005998D02*
X000432Y005998D01*
X000432Y006096D02*
X000935Y006096D01*
X000938Y006195D02*
X000432Y006195D01*
X000432Y006293D02*
X000980Y006293D01*
X000935Y006392D02*
X000432Y006392D01*
X000432Y006490D02*
X000935Y006490D01*
X000935Y006589D02*
X000432Y006589D01*
X000432Y006688D02*
X000935Y006688D01*
X000935Y006786D02*
X000432Y006786D01*
X000935Y006896D02*
X001023Y006983D01*
X000432Y007082D02*
X002282Y007082D01*
X002282Y007180D02*
X000432Y007180D01*
X000432Y007279D02*
X002317Y007279D01*
X003248Y007279D02*
X003837Y007279D01*
X003837Y007206D02*
X004232Y007206D01*
X004232Y007562D01*
X003967Y007562D01*
X003929Y007552D01*
X003895Y007532D01*
X003867Y007504D01*
X003847Y007470D01*
X003837Y007432D01*
X003837Y007206D01*
X003837Y007082D02*
X003282Y007082D01*
X003282Y006983D02*
X003837Y006983D01*
X003837Y006885D02*
X003282Y006885D01*
X003282Y006786D02*
X003889Y006786D01*
X003837Y006688D02*
X003282Y006688D01*
X003282Y006589D02*
X003837Y006589D01*
X003837Y006490D02*
X003282Y006490D01*
X003282Y006392D02*
X003837Y006392D01*
X003837Y006293D02*
X003282Y006293D01*
X003282Y006195D02*
X003837Y006195D01*
X003837Y006096D02*
X003282Y006096D01*
X003282Y005998D02*
X004072Y005998D01*
X004118Y005899D02*
X003282Y005899D01*
X003282Y005801D02*
X004217Y005801D01*
X004315Y005702D02*
X003282Y005702D01*
X003282Y005604D02*
X004147Y005604D01*
X004083Y005505D02*
X003282Y005505D01*
X003282Y005406D02*
X004081Y005406D01*
X004399Y005308D02*
X003282Y005308D01*
X003282Y005209D02*
X004081Y005209D01*
X004081Y005111D02*
X003273Y005111D01*
X002992Y005012D02*
X004100Y005012D01*
X004399Y005012D02*
X004496Y005012D01*
X004496Y005111D02*
X004399Y005111D01*
X004399Y005209D02*
X004496Y005209D01*
X005188Y004914D02*
X002992Y004914D01*
X002282Y005998D02*
X001629Y005998D01*
X001629Y006096D02*
X002282Y006096D01*
X002282Y006195D02*
X001626Y006195D01*
X001584Y006293D02*
X002282Y006293D01*
X002282Y006392D02*
X001629Y006392D01*
X003282Y007180D02*
X004232Y007180D01*
X004232Y007279D02*
X004332Y007279D01*
X004332Y007377D02*
X004232Y007377D01*
X004232Y007476D02*
X004332Y007476D01*
X004714Y007476D02*
X005239Y007476D01*
X005239Y007574D02*
X000432Y007574D01*
X000432Y007476D02*
X003851Y007476D01*
X003837Y007377D02*
X000432Y007377D01*
X000432Y007673D02*
X005239Y007673D01*
X005239Y007771D02*
X000432Y007771D01*
X000432Y007870D02*
X005239Y007870D01*
X005239Y007969D02*
X000432Y007969D01*
X004332Y007180D02*
X005239Y007180D01*
X005239Y007279D02*
X004727Y007279D01*
X004727Y007377D02*
X005239Y007377D01*
X005239Y007082D02*
X004727Y007082D01*
X004727Y006983D02*
X005239Y006983D01*
X005239Y006885D02*
X004727Y006885D01*
X004675Y006786D02*
X005239Y006786D01*
X005237Y006688D02*
X005161Y006688D01*
X004903Y006688D02*
X004727Y006688D01*
X009326Y007377D02*
X009337Y007377D01*
X009326Y007476D02*
X009337Y007476D01*
X009326Y007574D02*
X009337Y007574D01*
X009326Y007673D02*
X009337Y007673D01*
X009326Y007771D02*
X009337Y007771D01*
X009326Y007870D02*
X009337Y007870D01*
X009326Y007969D02*
X009337Y007969D01*
X010227Y007969D02*
X010337Y007969D01*
X010337Y007870D02*
X010227Y007870D01*
X010227Y007771D02*
X010337Y007771D01*
X010337Y007673D02*
X010227Y007673D01*
X010227Y007574D02*
X010337Y007574D01*
X010337Y007476D02*
X010227Y007476D01*
X010227Y007377D02*
X010337Y007377D01*
X010337Y007279D02*
X010227Y007279D01*
X010227Y007180D02*
X010337Y007180D01*
X010337Y007082D02*
X010227Y007082D01*
X010227Y006983D02*
X010337Y006983D01*
X010337Y006885D02*
X010227Y006885D01*
X010227Y006786D02*
X010337Y006786D01*
X010404Y006688D02*
X010160Y006688D01*
X009992Y006589D02*
X010474Y006589D01*
X010474Y006490D02*
X010010Y006490D01*
X010071Y006392D02*
X010506Y006392D01*
X010585Y006293D02*
X010091Y006293D01*
X010979Y006293D02*
X011359Y006293D01*
D21*
X010782Y006532D03*
X009782Y006282D03*
X008282Y005782D03*
X005032Y005782D03*
X005032Y006407D03*
X004907Y007657D03*
X001282Y004782D03*
X001282Y003782D03*
X003907Y003782D03*
X004782Y003282D03*
X005407Y002032D03*
X007532Y001282D03*
X009157Y002032D03*
X009532Y002407D03*
X009907Y002782D03*
X012782Y005782D03*
X015782Y006282D03*
D22*
X016032Y006532D01*
X016782Y006532D01*
X014782Y005782D02*
X014782Y007282D01*
X014282Y006782D02*
X013782Y007282D01*
X014282Y006782D02*
X014282Y005907D01*
X014157Y005782D01*
X013657Y005782D01*
X013282Y005407D01*
X011407Y005407D01*
X011282Y005282D01*
X011282Y004407D01*
X010657Y003782D01*
X009782Y003782D01*
X009398Y003398D01*
X008709Y003398D01*
X008709Y003654D02*
X009279Y003654D01*
X009657Y004032D01*
X010532Y004032D01*
X011032Y004532D01*
X011032Y005407D01*
X011407Y005782D01*
X012782Y005782D01*
X014282Y005282D02*
X014282Y004032D01*
X014032Y003782D01*
X011032Y003782D01*
X010782Y003532D01*
X009907Y003532D01*
X009262Y002887D01*
X008709Y002887D01*
X009532Y002407D02*
X009532Y001907D01*
X009157Y001532D01*
X008782Y001532D01*
X006660Y003654D01*
X005855Y003654D01*
X005855Y003398D02*
X006541Y003398D01*
X008657Y001282D01*
X009407Y001282D01*
X009907Y001782D01*
X009907Y002782D01*
X009157Y002032D02*
X008657Y002032D01*
X006779Y003910D01*
X005855Y003910D01*
X005855Y004166D02*
X005501Y004166D01*
X005117Y003782D01*
X004448Y003782D02*
X003907Y003782D01*
X004448Y003782D02*
X004448Y002782D01*
X005117Y002782D02*
X005117Y002198D01*
X005282Y002032D01*
X005407Y002032D01*
X005855Y002631D02*
X006559Y002631D01*
X007532Y001657D01*
X007532Y001282D01*
X008532Y001032D02*
X009532Y001032D01*
X012032Y003532D01*
X014532Y003532D01*
X014782Y003782D01*
X014782Y004282D01*
X014282Y005282D02*
X014782Y005782D01*
X011782Y006532D02*
X010782Y006532D01*
X010782Y007407D01*
X009782Y007407D02*
X009782Y006282D01*
X007782Y007282D02*
X007782Y004782D01*
X007887Y004678D01*
X008709Y004678D01*
X008709Y004422D02*
X007642Y004422D01*
X006782Y005282D01*
X006782Y007282D01*
X005033Y006408D02*
X004282Y006408D01*
X004282Y006032D01*
X004532Y005782D01*
X005032Y005782D01*
X005117Y005698D01*
X005117Y005282D01*
X005465Y004934D01*
X005855Y004934D01*
X005855Y004678D02*
X002887Y004678D01*
X002782Y004782D01*
X002782Y006182D01*
X002782Y006282D01*
X002448Y006617D01*
X001282Y006617D01*
X005032Y006407D02*
X005033Y006408D01*
X005855Y004422D02*
X002922Y004422D01*
X002782Y004282D01*
X002782Y002382D01*
X002782Y002282D01*
X002448Y001948D01*
X001282Y001948D01*
X005117Y002782D02*
X005221Y002887D01*
X005855Y002887D01*
X005855Y003142D02*
X006422Y003142D01*
X008532Y001032D01*
X008709Y004166D02*
X009331Y004166D01*
X009948Y004782D01*
D23*
X011782Y006532D02*
X013782Y006532D01*
X016782Y006532D02*
X018782Y006532D01*
X010782Y007032D02*
X010782Y007407D01*
X005782Y007282D02*
X005782Y006907D01*
X005283Y006408D01*
X005033Y006408D01*
X005117Y003782D02*
X005117Y003742D01*
X004782Y003407D01*
X004782Y003282D01*
M02*
