%
M48
M72
T01C0.0197
T02C0.0320
T03C0.1102
T04C0.1260
%
T01
X6657Y1532
X7157Y1532
X7657Y1532
X8157Y2907
X8907Y2907
X10157Y3032
X10157Y2157
X10282Y1782
X10282Y782
X6782Y6782
X10657Y7532
X11157Y7532
X11657Y7532
T02
X9282Y8282
X8282Y8282
X7282Y8282
X6282Y8282
X5282Y8282
X4282Y8282
X3282Y8282
X2282Y8282
X2282Y5282
X3282Y5282
X4282Y5282
X5282Y5282
X6282Y5282
X7282Y5282
X8282Y5282
X9282Y5282
T03
X1907Y2157
T04
X4282Y3282
M30
