G75*
G70*
%OFA0B0*%
%FSLAX24Y24*%
%IPPOS*%
%LPD*%
%AMOC8*
5,1,8,0,0,1.08239X$1,22.5*
%
%ADD10C,0.0000*%
D10*
X000282Y000282D02*
X000282Y008152D01*
X019774Y008152D01*
X019774Y000282D01*
X000282Y000282D01*
X010856Y001157D02*
X010858Y001204D01*
X010864Y001250D01*
X010874Y001296D01*
X010887Y001341D01*
X010905Y001384D01*
X010926Y001426D01*
X010950Y001466D01*
X010978Y001503D01*
X011009Y001538D01*
X011043Y001571D01*
X011079Y001600D01*
X011118Y001626D01*
X011159Y001649D01*
X011202Y001668D01*
X011246Y001684D01*
X011291Y001696D01*
X011337Y001704D01*
X011384Y001708D01*
X011430Y001708D01*
X011477Y001704D01*
X011523Y001696D01*
X011568Y001684D01*
X011612Y001668D01*
X011655Y001649D01*
X011696Y001626D01*
X011735Y001600D01*
X011771Y001571D01*
X011805Y001538D01*
X011836Y001503D01*
X011864Y001466D01*
X011888Y001426D01*
X011909Y001384D01*
X011927Y001341D01*
X011940Y001296D01*
X011950Y001250D01*
X011956Y001204D01*
X011958Y001157D01*
X011956Y001110D01*
X011950Y001064D01*
X011940Y001018D01*
X011927Y000973D01*
X011909Y000930D01*
X011888Y000888D01*
X011864Y000848D01*
X011836Y000811D01*
X011805Y000776D01*
X011771Y000743D01*
X011735Y000714D01*
X011696Y000688D01*
X011655Y000665D01*
X011612Y000646D01*
X011568Y000630D01*
X011523Y000618D01*
X011477Y000610D01*
X011430Y000606D01*
X011384Y000606D01*
X011337Y000610D01*
X011291Y000618D01*
X011246Y000630D01*
X011202Y000646D01*
X011159Y000665D01*
X011118Y000688D01*
X011079Y000714D01*
X011043Y000743D01*
X011009Y000776D01*
X010978Y000811D01*
X010950Y000848D01*
X010926Y000888D01*
X010905Y000930D01*
X010887Y000973D01*
X010874Y001018D01*
X010864Y001064D01*
X010858Y001110D01*
X010856Y001157D01*
X013152Y002282D02*
X013154Y002332D01*
X013160Y002382D01*
X013170Y002431D01*
X013184Y002479D01*
X013201Y002526D01*
X013222Y002571D01*
X013247Y002615D01*
X013275Y002656D01*
X013307Y002695D01*
X013341Y002732D01*
X013378Y002766D01*
X013418Y002796D01*
X013460Y002823D01*
X013504Y002847D01*
X013550Y002868D01*
X013597Y002884D01*
X013645Y002897D01*
X013695Y002906D01*
X013744Y002911D01*
X013795Y002912D01*
X013845Y002909D01*
X013894Y002902D01*
X013943Y002891D01*
X013991Y002876D01*
X014037Y002858D01*
X014082Y002836D01*
X014125Y002810D01*
X014166Y002781D01*
X014205Y002749D01*
X014241Y002714D01*
X014273Y002676D01*
X014303Y002636D01*
X014330Y002593D01*
X014353Y002549D01*
X014372Y002503D01*
X014388Y002455D01*
X014400Y002406D01*
X014408Y002357D01*
X014412Y002307D01*
X014412Y002257D01*
X014408Y002207D01*
X014400Y002158D01*
X014388Y002109D01*
X014372Y002061D01*
X014353Y002015D01*
X014330Y001971D01*
X014303Y001928D01*
X014273Y001888D01*
X014241Y001850D01*
X014205Y001815D01*
X014166Y001783D01*
X014125Y001754D01*
X014082Y001728D01*
X014037Y001706D01*
X013991Y001688D01*
X013943Y001673D01*
X013894Y001662D01*
X013845Y001655D01*
X013795Y001652D01*
X013744Y001653D01*
X013695Y001658D01*
X013645Y001667D01*
X013597Y001680D01*
X013550Y001696D01*
X013504Y001717D01*
X013460Y001741D01*
X013418Y001768D01*
X013378Y001798D01*
X013341Y001832D01*
X013307Y001869D01*
X013275Y001908D01*
X013247Y001949D01*
X013222Y001993D01*
X013201Y002038D01*
X013184Y002085D01*
X013170Y002133D01*
X013160Y002182D01*
X013154Y002232D01*
X013152Y002282D01*
M02*
