G75*
G70*
%OFA0B0*%
%FSLAX24Y24*%
%IPPOS*%
%LPD*%
%AMOC8*
5,1,8,0,0,1.08239X$1,22.5*
%
%ADD10C,0.0000*%
%ADD11C,0.0110*%
%ADD12C,0.0050*%
%ADD13C,0.0060*%
%ADD14C,0.0080*%
%ADD15R,0.2047X0.0384*%
%ADD16C,0.0020*%
D10*
X000282Y000282D02*
X000282Y008152D01*
X019774Y008152D01*
X019774Y000282D01*
X000282Y000282D01*
X010856Y001157D02*
X010858Y001204D01*
X010864Y001250D01*
X010874Y001296D01*
X010887Y001341D01*
X010905Y001384D01*
X010926Y001426D01*
X010950Y001466D01*
X010978Y001503D01*
X011009Y001538D01*
X011043Y001571D01*
X011079Y001600D01*
X011118Y001626D01*
X011159Y001649D01*
X011202Y001668D01*
X011246Y001684D01*
X011291Y001696D01*
X011337Y001704D01*
X011384Y001708D01*
X011430Y001708D01*
X011477Y001704D01*
X011523Y001696D01*
X011568Y001684D01*
X011612Y001668D01*
X011655Y001649D01*
X011696Y001626D01*
X011735Y001600D01*
X011771Y001571D01*
X011805Y001538D01*
X011836Y001503D01*
X011864Y001466D01*
X011888Y001426D01*
X011909Y001384D01*
X011927Y001341D01*
X011940Y001296D01*
X011950Y001250D01*
X011956Y001204D01*
X011958Y001157D01*
X011956Y001110D01*
X011950Y001064D01*
X011940Y001018D01*
X011927Y000973D01*
X011909Y000930D01*
X011888Y000888D01*
X011864Y000848D01*
X011836Y000811D01*
X011805Y000776D01*
X011771Y000743D01*
X011735Y000714D01*
X011696Y000688D01*
X011655Y000665D01*
X011612Y000646D01*
X011568Y000630D01*
X011523Y000618D01*
X011477Y000610D01*
X011430Y000606D01*
X011384Y000606D01*
X011337Y000610D01*
X011291Y000618D01*
X011246Y000630D01*
X011202Y000646D01*
X011159Y000665D01*
X011118Y000688D01*
X011079Y000714D01*
X011043Y000743D01*
X011009Y000776D01*
X010978Y000811D01*
X010950Y000848D01*
X010926Y000888D01*
X010905Y000930D01*
X010887Y000973D01*
X010874Y001018D01*
X010864Y001064D01*
X010858Y001110D01*
X010856Y001157D01*
X013152Y002282D02*
X013154Y002332D01*
X013160Y002382D01*
X013170Y002431D01*
X013184Y002479D01*
X013201Y002526D01*
X013222Y002571D01*
X013247Y002615D01*
X013275Y002656D01*
X013307Y002695D01*
X013341Y002732D01*
X013378Y002766D01*
X013418Y002796D01*
X013460Y002823D01*
X013504Y002847D01*
X013550Y002868D01*
X013597Y002884D01*
X013645Y002897D01*
X013695Y002906D01*
X013744Y002911D01*
X013795Y002912D01*
X013845Y002909D01*
X013894Y002902D01*
X013943Y002891D01*
X013991Y002876D01*
X014037Y002858D01*
X014082Y002836D01*
X014125Y002810D01*
X014166Y002781D01*
X014205Y002749D01*
X014241Y002714D01*
X014273Y002676D01*
X014303Y002636D01*
X014330Y002593D01*
X014353Y002549D01*
X014372Y002503D01*
X014388Y002455D01*
X014400Y002406D01*
X014408Y002357D01*
X014412Y002307D01*
X014412Y002257D01*
X014408Y002207D01*
X014400Y002158D01*
X014388Y002109D01*
X014372Y002061D01*
X014353Y002015D01*
X014330Y001971D01*
X014303Y001928D01*
X014273Y001888D01*
X014241Y001850D01*
X014205Y001815D01*
X014166Y001783D01*
X014125Y001754D01*
X014082Y001728D01*
X014037Y001706D01*
X013991Y001688D01*
X013943Y001673D01*
X013894Y001662D01*
X013845Y001655D01*
X013795Y001652D01*
X013744Y001653D01*
X013695Y001658D01*
X013645Y001667D01*
X013597Y001680D01*
X013550Y001696D01*
X013504Y001717D01*
X013460Y001741D01*
X013418Y001768D01*
X013378Y001798D01*
X013341Y001832D01*
X013307Y001869D01*
X013275Y001908D01*
X013247Y001949D01*
X013222Y001993D01*
X013201Y002038D01*
X013184Y002085D01*
X013170Y002133D01*
X013160Y002182D01*
X013154Y002232D01*
X013152Y002282D01*
D11*
X014337Y001553D02*
X014731Y000962D01*
X014731Y001553D01*
X014982Y001553D02*
X014982Y000962D01*
X015375Y000962D01*
X015626Y001061D02*
X015725Y000962D01*
X015921Y000962D01*
X016020Y001061D01*
X016020Y001159D01*
X015921Y001257D01*
X015725Y001257D01*
X015626Y001356D01*
X015626Y001454D01*
X015725Y001553D01*
X015921Y001553D01*
X016020Y001454D01*
X016271Y001553D02*
X016271Y001159D01*
X016468Y000962D01*
X016664Y001159D01*
X016664Y001553D01*
X016915Y001257D02*
X017014Y001356D01*
X017211Y001356D01*
X017309Y001257D01*
X017309Y001159D01*
X016915Y001159D01*
X016915Y001061D02*
X016915Y001257D01*
X016915Y001061D02*
X017014Y000962D01*
X017211Y000962D01*
X017560Y000962D02*
X017560Y001356D01*
X017757Y001356D02*
X017855Y001356D01*
X017757Y001356D02*
X017560Y001159D01*
X018097Y001356D02*
X018294Y001356D01*
X018195Y001454D02*
X018195Y001061D01*
X018294Y000962D01*
X018527Y001061D02*
X018527Y001257D01*
X018625Y001356D01*
X018822Y001356D01*
X018920Y001257D01*
X018920Y001159D01*
X018527Y001159D01*
X018527Y001061D02*
X018625Y000962D01*
X018822Y000962D01*
X019171Y000962D02*
X019171Y001356D01*
X019368Y001356D02*
X019466Y001356D01*
X019368Y001356D02*
X019171Y001159D01*
X015375Y001553D02*
X014982Y001553D01*
X014337Y001553D02*
X014337Y000962D01*
X014982Y001257D02*
X015179Y001257D01*
X008981Y005811D02*
X008882Y005712D01*
X008587Y005712D01*
X008587Y006303D01*
X008882Y006303D01*
X008981Y006204D01*
X008981Y006106D01*
X008882Y006007D01*
X008587Y006007D01*
X008882Y006007D02*
X008981Y005909D01*
X008981Y005811D01*
X007981Y005811D02*
X007882Y005712D01*
X007686Y005712D01*
X007587Y005811D01*
X007587Y006204D01*
X007686Y006303D01*
X007882Y006303D01*
X007981Y006204D01*
X007981Y006007D02*
X007784Y006007D01*
X007981Y006007D02*
X007981Y005811D01*
X006981Y005712D02*
X006981Y006303D01*
X006587Y006303D02*
X006587Y005712D01*
X006784Y005909D01*
X006981Y005712D01*
X005981Y005712D02*
X005784Y005909D01*
X005882Y005909D02*
X005981Y006007D01*
X005981Y006204D01*
X005882Y006303D01*
X005587Y006303D01*
X005587Y005712D01*
X005587Y005909D02*
X005882Y005909D01*
D12*
X006241Y000907D02*
X006182Y000849D01*
X006182Y000616D01*
X006241Y000557D01*
X006357Y000557D01*
X006416Y000616D01*
X006416Y000849D01*
X006357Y000907D01*
X006241Y000907D01*
X006551Y000907D02*
X006726Y000907D01*
X006784Y000849D01*
X006784Y000732D01*
X006726Y000674D01*
X006551Y000674D01*
X006667Y000674D02*
X006784Y000557D01*
X006919Y000557D02*
X007094Y000557D01*
X007152Y000616D01*
X007152Y000849D01*
X007094Y000907D01*
X006919Y000907D01*
X006919Y000557D01*
X007287Y000557D02*
X007521Y000557D01*
X007655Y000557D02*
X007655Y000907D01*
X007831Y000907D01*
X007889Y000849D01*
X007889Y000732D01*
X007831Y000674D01*
X007655Y000674D01*
X007772Y000674D02*
X007889Y000557D01*
X008392Y000616D02*
X008450Y000557D01*
X008567Y000557D01*
X008626Y000616D01*
X008626Y000674D01*
X008567Y000732D01*
X008509Y000732D01*
X008567Y000732D02*
X008626Y000791D01*
X008626Y000849D01*
X008567Y000907D01*
X008450Y000907D01*
X008392Y000849D01*
X008760Y000907D02*
X008760Y000732D01*
X008877Y000791D01*
X008935Y000791D01*
X008994Y000732D01*
X008994Y000616D01*
X008935Y000557D01*
X008819Y000557D01*
X008760Y000616D01*
X009129Y000616D02*
X009187Y000557D01*
X009304Y000557D01*
X009362Y000616D01*
X009362Y000849D01*
X009304Y000907D01*
X009187Y000907D01*
X009129Y000849D01*
X009129Y000791D01*
X009187Y000732D01*
X009362Y000732D01*
X009497Y000616D02*
X009730Y000849D01*
X009730Y000616D01*
X009672Y000557D01*
X009555Y000557D01*
X009497Y000616D01*
X009497Y000849D01*
X009555Y000907D01*
X009672Y000907D01*
X009730Y000849D01*
X009865Y000849D02*
X009924Y000907D01*
X010040Y000907D01*
X010099Y000849D01*
X010099Y000791D01*
X009865Y000557D01*
X010099Y000557D01*
X008994Y000907D02*
X008760Y000907D01*
X007521Y000907D02*
X007287Y000907D01*
X007287Y000557D01*
X007287Y000732D02*
X007404Y000732D01*
X006551Y000557D02*
X006551Y000907D01*
D13*
X003632Y002032D02*
X003232Y002032D01*
X003632Y002032D02*
X003649Y002034D01*
X003666Y002038D01*
X003682Y002045D01*
X003696Y002055D01*
X003709Y002068D01*
X003719Y002082D01*
X003726Y002098D01*
X003730Y002115D01*
X003732Y002132D01*
X003732Y006432D01*
X003730Y006449D01*
X003726Y006466D01*
X003719Y006482D01*
X003709Y006496D01*
X003696Y006509D01*
X003682Y006519D01*
X003666Y006526D01*
X003649Y006530D01*
X003632Y006532D01*
X003232Y006532D01*
X002332Y006532D02*
X001932Y006532D01*
X001915Y006530D01*
X001898Y006526D01*
X001882Y006519D01*
X001868Y006509D01*
X001855Y006496D01*
X001845Y006482D01*
X001838Y006466D01*
X001834Y006449D01*
X001832Y006432D01*
X001832Y002132D01*
X001834Y002115D01*
X001838Y002098D01*
X001845Y002082D01*
X001855Y002068D01*
X001868Y002055D01*
X001882Y002045D01*
X001898Y002038D01*
X001915Y002034D01*
X001932Y002032D01*
X002332Y002032D01*
X002532Y004032D02*
X002782Y004032D01*
X003032Y004032D01*
X003032Y004182D02*
X003032Y004382D01*
X002532Y004382D01*
X002532Y004182D01*
X003032Y004182D01*
X003032Y004532D02*
X002782Y004532D01*
X002532Y004532D01*
X011282Y004632D02*
X011282Y005382D01*
X011321Y005384D01*
X011360Y005390D01*
X011398Y005399D01*
X011435Y005412D01*
X011471Y005429D01*
X011504Y005449D01*
X011536Y005473D01*
X011565Y005499D01*
X011591Y005528D01*
X011615Y005560D01*
X011635Y005593D01*
X011652Y005629D01*
X011665Y005666D01*
X011674Y005704D01*
X011680Y005743D01*
X011682Y005782D01*
X011680Y005821D01*
X011674Y005860D01*
X011665Y005898D01*
X011652Y005935D01*
X011635Y005971D01*
X011615Y006004D01*
X011591Y006036D01*
X011565Y006065D01*
X011536Y006091D01*
X011504Y006115D01*
X011471Y006135D01*
X011435Y006152D01*
X011398Y006165D01*
X011360Y006174D01*
X011321Y006180D01*
X011282Y006182D01*
X011282Y006932D01*
X019282Y006932D01*
X019282Y004632D01*
X011282Y004632D01*
D14*
X012176Y004782D02*
X013389Y004782D01*
X013782Y005294D02*
X013782Y006270D01*
X014672Y006018D02*
X014812Y006018D01*
X014742Y006018D02*
X014742Y005597D01*
X014672Y005597D02*
X014812Y005597D01*
X014979Y005667D02*
X015049Y005597D01*
X015189Y005597D01*
X015259Y005667D01*
X015439Y005597D02*
X015720Y005597D01*
X015580Y005597D02*
X015580Y006018D01*
X015439Y005877D01*
X015259Y005947D02*
X015189Y006018D01*
X015049Y006018D01*
X014979Y005947D01*
X014979Y005667D01*
X016782Y005294D02*
X016782Y006282D01*
X017176Y006782D02*
X018389Y006782D01*
X018782Y006270D02*
X018782Y005294D01*
X018389Y004782D02*
X017176Y004782D01*
X017282Y005782D02*
X017284Y005826D01*
X017290Y005870D01*
X017300Y005913D01*
X017313Y005955D01*
X017330Y005996D01*
X017351Y006035D01*
X017375Y006072D01*
X017402Y006107D01*
X017432Y006139D01*
X017465Y006169D01*
X017501Y006195D01*
X017538Y006219D01*
X017578Y006238D01*
X017619Y006255D01*
X017662Y006267D01*
X017705Y006276D01*
X017749Y006281D01*
X017793Y006282D01*
X017837Y006279D01*
X017881Y006272D01*
X017924Y006261D01*
X017966Y006247D01*
X018006Y006229D01*
X018045Y006207D01*
X018081Y006183D01*
X018115Y006155D01*
X018147Y006124D01*
X018176Y006090D01*
X018202Y006054D01*
X018224Y006016D01*
X018243Y005976D01*
X018258Y005934D01*
X018270Y005892D01*
X018278Y005848D01*
X018282Y005804D01*
X018282Y005760D01*
X018278Y005716D01*
X018270Y005672D01*
X018258Y005630D01*
X018243Y005588D01*
X018224Y005548D01*
X018202Y005510D01*
X018176Y005474D01*
X018147Y005440D01*
X018115Y005409D01*
X018081Y005381D01*
X018045Y005357D01*
X018006Y005335D01*
X017966Y005317D01*
X017924Y005303D01*
X017881Y005292D01*
X017837Y005285D01*
X017793Y005282D01*
X017749Y005283D01*
X017705Y005288D01*
X017662Y005297D01*
X017619Y005309D01*
X017578Y005326D01*
X017538Y005345D01*
X017501Y005369D01*
X017465Y005395D01*
X017432Y005425D01*
X017402Y005457D01*
X017375Y005492D01*
X017351Y005529D01*
X017330Y005568D01*
X017313Y005609D01*
X017300Y005651D01*
X017290Y005694D01*
X017284Y005738D01*
X017282Y005782D01*
X013389Y006782D02*
X012176Y006782D01*
X011782Y006282D02*
X011782Y005294D01*
X010688Y005322D02*
X010408Y005322D01*
X010688Y005602D01*
X010688Y005672D01*
X010618Y005743D01*
X010478Y005743D01*
X010408Y005672D01*
X010227Y005672D02*
X010157Y005743D01*
X010017Y005743D01*
X009947Y005672D01*
X009947Y005392D01*
X010017Y005322D01*
X010157Y005322D01*
X010227Y005392D01*
X008306Y005278D02*
X008306Y002286D01*
X006259Y002286D01*
X006259Y005278D01*
X005048Y004743D02*
X005048Y004322D01*
X004908Y004322D02*
X005188Y004322D01*
X004727Y004392D02*
X004657Y004322D01*
X004517Y004322D01*
X004447Y004392D01*
X004447Y004672D01*
X004517Y004743D01*
X004657Y004743D01*
X004727Y004672D01*
X004908Y004602D02*
X005048Y004743D01*
X001688Y005282D02*
X001408Y005282D01*
X001618Y005493D01*
X001618Y005072D01*
X001227Y005142D02*
X001157Y005072D01*
X001017Y005072D01*
X000947Y005142D01*
X000947Y005422D01*
X001017Y005493D01*
X001157Y005493D01*
X001227Y005422D01*
X003947Y007642D02*
X004017Y007572D01*
X004157Y007572D01*
X004227Y007642D01*
X004408Y007642D02*
X004478Y007572D01*
X004618Y007572D01*
X004688Y007642D01*
X004688Y007712D01*
X004618Y007782D01*
X004548Y007782D01*
X004618Y007782D02*
X004688Y007852D01*
X004688Y007922D01*
X004618Y007993D01*
X004478Y007993D01*
X004408Y007922D01*
X004227Y007922D02*
X004157Y007993D01*
X004017Y007993D01*
X003947Y007922D01*
X003947Y007642D01*
X012282Y005782D02*
X012284Y005826D01*
X012290Y005870D01*
X012300Y005913D01*
X012313Y005955D01*
X012330Y005996D01*
X012351Y006035D01*
X012375Y006072D01*
X012402Y006107D01*
X012432Y006139D01*
X012465Y006169D01*
X012501Y006195D01*
X012538Y006219D01*
X012578Y006238D01*
X012619Y006255D01*
X012662Y006267D01*
X012705Y006276D01*
X012749Y006281D01*
X012793Y006282D01*
X012837Y006279D01*
X012881Y006272D01*
X012924Y006261D01*
X012966Y006247D01*
X013006Y006229D01*
X013045Y006207D01*
X013081Y006183D01*
X013115Y006155D01*
X013147Y006124D01*
X013176Y006090D01*
X013202Y006054D01*
X013224Y006016D01*
X013243Y005976D01*
X013258Y005934D01*
X013270Y005892D01*
X013278Y005848D01*
X013282Y005804D01*
X013282Y005760D01*
X013278Y005716D01*
X013270Y005672D01*
X013258Y005630D01*
X013243Y005588D01*
X013224Y005548D01*
X013202Y005510D01*
X013176Y005474D01*
X013147Y005440D01*
X013115Y005409D01*
X013081Y005381D01*
X013045Y005357D01*
X013006Y005335D01*
X012966Y005317D01*
X012924Y005303D01*
X012881Y005292D01*
X012837Y005285D01*
X012793Y005282D01*
X012749Y005283D01*
X012705Y005288D01*
X012662Y005297D01*
X012619Y005309D01*
X012578Y005326D01*
X012538Y005345D01*
X012501Y005369D01*
X012465Y005395D01*
X012432Y005425D01*
X012402Y005457D01*
X012375Y005492D01*
X012351Y005529D01*
X012330Y005568D01*
X012313Y005609D01*
X012300Y005651D01*
X012290Y005694D01*
X012284Y005738D01*
X012282Y005782D01*
X012073Y003568D02*
X012073Y003147D01*
X011933Y003147D02*
X012213Y003147D01*
X011752Y003217D02*
X011682Y003147D01*
X011542Y003147D01*
X011472Y003217D01*
X011542Y003357D02*
X011682Y003357D01*
X011752Y003287D01*
X011752Y003217D01*
X011542Y003357D02*
X011472Y003427D01*
X011472Y003497D01*
X011542Y003568D01*
X011682Y003568D01*
X011752Y003497D01*
X011933Y003427D02*
X012073Y003568D01*
X007346Y001953D02*
X007346Y001883D01*
X007066Y001603D01*
X007346Y001603D01*
X006886Y001673D02*
X006816Y001603D01*
X006676Y001603D01*
X006606Y001673D01*
X006606Y001953D01*
X006676Y002023D01*
X006816Y002023D01*
X006886Y001953D01*
X007066Y001953D02*
X007136Y002023D01*
X007276Y002023D01*
X007346Y001953D01*
X006439Y002023D02*
X006299Y002023D01*
X006369Y002023D02*
X006369Y001603D01*
X006299Y001603D02*
X006439Y001603D01*
X005188Y001547D02*
X005188Y001477D01*
X004908Y001197D01*
X005188Y001197D01*
X004727Y001197D02*
X004587Y001337D01*
X004657Y001337D02*
X004447Y001337D01*
X004447Y001197D02*
X004447Y001618D01*
X004657Y001618D01*
X004727Y001547D01*
X004727Y001407D01*
X004657Y001337D01*
X004908Y001547D02*
X004978Y001618D01*
X005118Y001618D01*
X005188Y001547D01*
X005188Y001822D02*
X004908Y001822D01*
X005048Y001822D02*
X005048Y002243D01*
X004908Y002102D01*
X004727Y002032D02*
X004657Y001962D01*
X004447Y001962D01*
X004587Y001962D02*
X004727Y001822D01*
X004447Y001822D02*
X004447Y002243D01*
X004657Y002243D01*
X004727Y002172D01*
X004727Y002032D01*
X003048Y001168D02*
X003048Y000747D01*
X002908Y000747D02*
X003188Y000747D01*
X002727Y000747D02*
X002587Y000887D01*
X002517Y000747D02*
X002447Y000817D01*
X002447Y001097D01*
X002517Y001168D01*
X002657Y001168D01*
X002727Y001097D01*
X002727Y000817D01*
X002657Y000747D01*
X002517Y000747D01*
X002908Y001027D02*
X003048Y001168D01*
X001688Y001142D02*
X001618Y001072D01*
X001478Y001072D01*
X001408Y001142D01*
X001227Y001142D02*
X001157Y001072D01*
X001017Y001072D01*
X000947Y001142D01*
X000947Y001422D01*
X001017Y001493D01*
X001157Y001493D01*
X001227Y001422D01*
X001408Y001493D02*
X001408Y001282D01*
X001548Y001352D01*
X001618Y001352D01*
X001688Y001282D01*
X001688Y001142D01*
X001688Y001493D02*
X001408Y001493D01*
X017472Y003217D02*
X017542Y003147D01*
X017682Y003147D01*
X017752Y003217D01*
X017752Y003287D01*
X017682Y003357D01*
X017542Y003357D01*
X017472Y003427D01*
X017472Y003497D01*
X017542Y003568D01*
X017682Y003568D01*
X017752Y003497D01*
X017933Y003497D02*
X018003Y003568D01*
X018143Y003568D01*
X018213Y003497D01*
X018213Y003427D01*
X017933Y003147D01*
X018213Y003147D01*
D15*
X007282Y005126D03*
D16*
X003582Y005632D02*
X003582Y002932D01*
X003282Y002932D02*
X003282Y005632D01*
X003582Y005632D02*
X003580Y005688D01*
X003574Y005743D01*
X003565Y005798D01*
X003551Y005852D01*
X003534Y005905D01*
X003513Y005956D01*
X003489Y006006D01*
X003461Y006054D01*
X003430Y006101D01*
X003396Y006145D01*
X003359Y006186D01*
X003319Y006225D01*
X003277Y006261D01*
X003232Y006293D01*
X002332Y005850D02*
X002317Y005816D01*
X002304Y005780D01*
X002295Y005744D01*
X002288Y005707D01*
X002283Y005670D01*
X002282Y005632D01*
X002282Y002932D01*
X001982Y002932D02*
X001982Y005632D01*
X003232Y005850D02*
X003247Y005816D01*
X003260Y005780D01*
X003269Y005744D01*
X003276Y005707D01*
X003281Y005670D01*
X003282Y005632D01*
X002332Y006293D02*
X002287Y006261D01*
X002245Y006225D01*
X002205Y006186D01*
X002168Y006144D01*
X002134Y006101D01*
X002103Y006054D01*
X002075Y006006D01*
X002051Y005956D01*
X002030Y005905D01*
X002013Y005852D01*
X001999Y005798D01*
X001990Y005743D01*
X001984Y005688D01*
X001982Y005632D01*
X002782Y004732D02*
X002782Y004532D01*
X002782Y004032D02*
X002782Y003832D01*
X001982Y002932D02*
X001984Y002876D01*
X001990Y002821D01*
X001999Y002766D01*
X002013Y002712D01*
X002030Y002659D01*
X002051Y002608D01*
X002075Y002558D01*
X002103Y002510D01*
X002134Y002463D01*
X002168Y002419D01*
X002205Y002378D01*
X002245Y002339D01*
X002287Y002303D01*
X002332Y002271D01*
X002332Y002714D02*
X002317Y002748D01*
X002304Y002784D01*
X002295Y002820D01*
X002288Y002857D01*
X002283Y002894D01*
X002282Y002932D01*
X003232Y002714D02*
X003247Y002748D01*
X003260Y002784D01*
X003269Y002820D01*
X003276Y002857D01*
X003281Y002894D01*
X003282Y002932D01*
X003582Y002932D02*
X003580Y002876D01*
X003574Y002821D01*
X003565Y002766D01*
X003551Y002712D01*
X003534Y002659D01*
X003513Y002608D01*
X003489Y002558D01*
X003461Y002510D01*
X003430Y002463D01*
X003396Y002420D01*
X003359Y002378D01*
X003319Y002339D01*
X003277Y002303D01*
X003232Y002271D01*
M02*
