G75*
G70*
%OFA0B0*%
%FSLAX24Y24*%
%IPPOS*%
%LPD*%
%AMOC8*
5,1,8,0,0,1.08239X$1,22.5*
%
%ADD10C,0.0000*%
%ADD11C,0.0520*%
%ADD12C,0.0120*%
%ADD13C,0.0100*%
%ADD14C,0.0317*%
D10*
X000282Y000282D02*
X000282Y009152D01*
X012274Y009152D01*
X012274Y000282D01*
X000282Y000282D01*
X001356Y002157D02*
X001358Y002204D01*
X001364Y002250D01*
X001374Y002296D01*
X001387Y002341D01*
X001405Y002384D01*
X001426Y002426D01*
X001450Y002466D01*
X001478Y002503D01*
X001509Y002538D01*
X001543Y002571D01*
X001579Y002600D01*
X001618Y002626D01*
X001659Y002649D01*
X001702Y002668D01*
X001746Y002684D01*
X001791Y002696D01*
X001837Y002704D01*
X001884Y002708D01*
X001930Y002708D01*
X001977Y002704D01*
X002023Y002696D01*
X002068Y002684D01*
X002112Y002668D01*
X002155Y002649D01*
X002196Y002626D01*
X002235Y002600D01*
X002271Y002571D01*
X002305Y002538D01*
X002336Y002503D01*
X002364Y002466D01*
X002388Y002426D01*
X002409Y002384D01*
X002427Y002341D01*
X002440Y002296D01*
X002450Y002250D01*
X002456Y002204D01*
X002458Y002157D01*
X002456Y002110D01*
X002450Y002064D01*
X002440Y002018D01*
X002427Y001973D01*
X002409Y001930D01*
X002388Y001888D01*
X002364Y001848D01*
X002336Y001811D01*
X002305Y001776D01*
X002271Y001743D01*
X002235Y001714D01*
X002196Y001688D01*
X002155Y001665D01*
X002112Y001646D01*
X002068Y001630D01*
X002023Y001618D01*
X001977Y001610D01*
X001930Y001606D01*
X001884Y001606D01*
X001837Y001610D01*
X001791Y001618D01*
X001746Y001630D01*
X001702Y001646D01*
X001659Y001665D01*
X001618Y001688D01*
X001579Y001714D01*
X001543Y001743D01*
X001509Y001776D01*
X001478Y001811D01*
X001450Y001848D01*
X001426Y001888D01*
X001405Y001930D01*
X001387Y001973D01*
X001374Y002018D01*
X001364Y002064D01*
X001358Y002110D01*
X001356Y002157D01*
X003652Y003282D02*
X003654Y003332D01*
X003660Y003382D01*
X003670Y003431D01*
X003684Y003479D01*
X003701Y003526D01*
X003722Y003571D01*
X003747Y003615D01*
X003775Y003656D01*
X003807Y003695D01*
X003841Y003732D01*
X003878Y003766D01*
X003918Y003796D01*
X003960Y003823D01*
X004004Y003847D01*
X004050Y003868D01*
X004097Y003884D01*
X004145Y003897D01*
X004195Y003906D01*
X004244Y003911D01*
X004295Y003912D01*
X004345Y003909D01*
X004394Y003902D01*
X004443Y003891D01*
X004491Y003876D01*
X004537Y003858D01*
X004582Y003836D01*
X004625Y003810D01*
X004666Y003781D01*
X004705Y003749D01*
X004741Y003714D01*
X004773Y003676D01*
X004803Y003636D01*
X004830Y003593D01*
X004853Y003549D01*
X004872Y003503D01*
X004888Y003455D01*
X004900Y003406D01*
X004908Y003357D01*
X004912Y003307D01*
X004912Y003257D01*
X004908Y003207D01*
X004900Y003158D01*
X004888Y003109D01*
X004872Y003061D01*
X004853Y003015D01*
X004830Y002971D01*
X004803Y002928D01*
X004773Y002888D01*
X004741Y002850D01*
X004705Y002815D01*
X004666Y002783D01*
X004625Y002754D01*
X004582Y002728D01*
X004537Y002706D01*
X004491Y002688D01*
X004443Y002673D01*
X004394Y002662D01*
X004345Y002655D01*
X004295Y002652D01*
X004244Y002653D01*
X004195Y002658D01*
X004145Y002667D01*
X004097Y002680D01*
X004050Y002696D01*
X004004Y002717D01*
X003960Y002741D01*
X003918Y002768D01*
X003878Y002798D01*
X003841Y002832D01*
X003807Y002869D01*
X003775Y002908D01*
X003747Y002949D01*
X003722Y002993D01*
X003701Y003038D01*
X003684Y003085D01*
X003670Y003133D01*
X003660Y003182D01*
X003654Y003232D01*
X003652Y003282D01*
D11*
X003282Y005282D03*
X002282Y005282D03*
X004282Y005282D03*
X005282Y005282D03*
X006282Y005282D03*
X007282Y005282D03*
X008282Y005282D03*
X009282Y005282D03*
X009282Y008282D03*
X008282Y008282D03*
X007282Y008282D03*
X006282Y008282D03*
X005282Y008282D03*
X004282Y008282D03*
X003282Y008282D03*
X002282Y008282D03*
D12*
X001472Y008332D02*
X001222Y008092D01*
X001222Y007842D01*
X000732Y007842D01*
X000732Y008212D01*
X000852Y008332D01*
X001102Y008332D01*
X001222Y008212D01*
X001222Y008092D01*
X001222Y007842D02*
X001472Y007842D01*
X001352Y007842D02*
X001222Y007842D01*
X000852Y007842D01*
X000732Y007722D01*
X000732Y007482D01*
X000852Y007362D01*
X001102Y007352D02*
X001102Y007602D01*
X001102Y007352D02*
X001342Y007352D01*
X001472Y007472D01*
X001472Y007722D01*
X001352Y007842D01*
X001472Y006982D02*
X000992Y006492D01*
X000872Y006492D01*
X000862Y006492D02*
X000742Y006612D01*
X000742Y006852D01*
X000872Y006982D01*
X001472Y006982D02*
X001472Y006492D01*
X001352Y006182D02*
X001472Y006062D01*
X001472Y005822D01*
X001352Y005702D01*
X000872Y005702D01*
X000752Y005822D01*
X000752Y006062D01*
X000872Y006182D01*
X001352Y006182D01*
X000872Y005712D01*
X000995Y005392D02*
X000752Y005150D01*
X000760Y005150D02*
X001465Y005150D01*
X001472Y004910D02*
X001472Y005395D01*
X001472Y004612D02*
X000992Y004122D01*
X000872Y004122D01*
X000862Y004122D02*
X000742Y004242D01*
X000742Y004482D01*
X000872Y004612D01*
X001472Y004605D02*
X001472Y004120D01*
X005782Y005782D02*
X005782Y002407D01*
X006657Y001532D01*
X006782Y001907D02*
X007157Y001532D01*
X007657Y001532D02*
X007157Y002032D01*
X007157Y004407D01*
X007782Y005032D01*
X007782Y008657D01*
X007532Y008907D01*
X003532Y008907D01*
X003282Y008657D01*
X003282Y008282D01*
X005282Y008282D02*
X006282Y007282D01*
X006282Y006282D01*
X005782Y005782D01*
X006782Y006782D02*
X006782Y001907D01*
X008157Y002907D02*
X010282Y000782D01*
X010282Y001782D02*
X010032Y001782D01*
X008907Y002907D01*
D13*
X008629Y003041D02*
X008435Y003041D01*
X008419Y003082D02*
X008332Y003169D01*
X008219Y003216D01*
X008096Y003216D01*
X007982Y003169D01*
X007896Y003082D01*
X007849Y002969D01*
X007849Y002846D01*
X007896Y002732D01*
X007982Y002646D01*
X008096Y002599D01*
X008169Y002599D01*
X009974Y000794D01*
X009974Y000721D01*
X010021Y000607D01*
X010107Y000521D01*
X010221Y000474D01*
X010344Y000474D01*
X010457Y000521D01*
X010544Y000607D01*
X010591Y000721D01*
X010591Y000844D01*
X010544Y000957D01*
X010457Y001044D01*
X010344Y001091D01*
X010271Y001091D01*
X008466Y002896D01*
X008466Y002969D01*
X008419Y003082D01*
X008361Y003140D02*
X008704Y003140D01*
X008732Y003169D02*
X008646Y003082D01*
X008599Y002969D01*
X008599Y002846D01*
X008646Y002732D01*
X008732Y002646D01*
X008846Y002599D01*
X008919Y002599D01*
X009822Y001695D01*
X009945Y001572D01*
X010056Y001572D01*
X010107Y001521D01*
X010221Y001474D01*
X010344Y001474D01*
X010457Y001521D01*
X010544Y001607D01*
X010591Y001721D01*
X010591Y001844D01*
X010544Y001957D01*
X010457Y002044D01*
X010344Y002091D01*
X010221Y002091D01*
X010107Y002044D01*
X010088Y002024D01*
X009216Y002896D01*
X009216Y002969D01*
X009169Y003082D01*
X009082Y003169D01*
X008969Y003216D01*
X008846Y003216D01*
X008732Y003169D01*
X008599Y002943D02*
X008466Y002943D01*
X008517Y002844D02*
X008599Y002844D01*
X008616Y002746D02*
X008640Y002746D01*
X008714Y002647D02*
X008731Y002647D01*
X008813Y002549D02*
X008969Y002549D01*
X008911Y002450D02*
X009067Y002450D01*
X009010Y002352D02*
X009166Y002352D01*
X009108Y002253D02*
X009264Y002253D01*
X009207Y002155D02*
X009363Y002155D01*
X009305Y002056D02*
X009461Y002056D01*
X009404Y001957D02*
X009560Y001957D01*
X009502Y001859D02*
X009659Y001859D01*
X009601Y001760D02*
X009757Y001760D01*
X009700Y001662D02*
X009856Y001662D01*
X009798Y001563D02*
X010065Y001563D01*
X009897Y001465D02*
X012124Y001465D01*
X012124Y001563D02*
X010499Y001563D01*
X010566Y001662D02*
X012124Y001662D01*
X012124Y001760D02*
X010591Y001760D01*
X010584Y001859D02*
X012124Y001859D01*
X012124Y001957D02*
X010543Y001957D01*
X010427Y002056D02*
X012124Y002056D01*
X012124Y002155D02*
X009957Y002155D01*
X009858Y002253D02*
X012124Y002253D01*
X012124Y002352D02*
X009760Y002352D01*
X009661Y002450D02*
X012124Y002450D01*
X012124Y002549D02*
X009563Y002549D01*
X009464Y002647D02*
X012124Y002647D01*
X012124Y002746D02*
X009366Y002746D01*
X009267Y002844D02*
X012124Y002844D01*
X012124Y002943D02*
X009216Y002943D01*
X009185Y003041D02*
X012124Y003041D01*
X012124Y003140D02*
X009111Y003140D01*
X008219Y002549D02*
X007367Y002549D01*
X007367Y002647D02*
X007981Y002647D01*
X007890Y002746D02*
X007367Y002746D01*
X007367Y002844D02*
X007849Y002844D01*
X007849Y002943D02*
X007367Y002943D01*
X007367Y003041D02*
X007879Y003041D01*
X007954Y003140D02*
X007367Y003140D01*
X007367Y003239D02*
X012124Y003239D01*
X012124Y003337D02*
X007367Y003337D01*
X007367Y003436D02*
X012124Y003436D01*
X012124Y003534D02*
X007367Y003534D01*
X007367Y003633D02*
X012124Y003633D01*
X012124Y003731D02*
X007367Y003731D01*
X007367Y003830D02*
X012124Y003830D01*
X012124Y003928D02*
X007367Y003928D01*
X007367Y004027D02*
X012124Y004027D01*
X012124Y004125D02*
X007367Y004125D01*
X007367Y004224D02*
X012124Y004224D01*
X012124Y004322D02*
X007369Y004322D01*
X007367Y004320D02*
X007869Y004822D01*
X007992Y004945D01*
X007992Y004992D01*
X008050Y004935D01*
X008201Y004872D01*
X008364Y004872D01*
X008514Y004935D01*
X008630Y005050D01*
X008692Y005201D01*
X008692Y005364D01*
X008630Y005514D01*
X008514Y005630D01*
X008364Y005692D01*
X008201Y005692D01*
X008050Y005630D01*
X007992Y005572D01*
X007992Y007992D01*
X008050Y007935D01*
X008201Y007872D01*
X008364Y007872D01*
X008514Y007935D01*
X008630Y008050D01*
X008692Y008201D01*
X008692Y008364D01*
X008630Y008514D01*
X008514Y008630D01*
X008364Y008692D01*
X008201Y008692D01*
X008050Y008630D01*
X007992Y008572D01*
X007992Y008744D01*
X007869Y008867D01*
X007734Y009002D01*
X012124Y009002D01*
X012124Y000432D01*
X000432Y000432D01*
X000432Y009002D01*
X003330Y009002D01*
X003322Y008994D01*
X003072Y008744D01*
X003072Y008639D01*
X003050Y008630D01*
X002935Y008514D01*
X002872Y008364D01*
X002872Y008201D01*
X002935Y008050D01*
X003050Y007935D01*
X003201Y007872D01*
X003364Y007872D01*
X003514Y007935D01*
X003630Y008050D01*
X003692Y008201D01*
X003692Y008364D01*
X003630Y008514D01*
X003533Y008611D01*
X003619Y008697D01*
X007445Y008697D01*
X007511Y008631D01*
X007364Y008692D01*
X007201Y008692D01*
X007050Y008630D01*
X006935Y008514D01*
X006872Y008364D01*
X006872Y008201D01*
X006935Y008050D01*
X007050Y007935D01*
X007201Y007872D01*
X007364Y007872D01*
X007514Y007935D01*
X007572Y007992D01*
X007572Y005572D01*
X007514Y005630D01*
X007364Y005692D01*
X007201Y005692D01*
X007050Y005630D01*
X006992Y005572D01*
X006992Y006556D01*
X007044Y006607D01*
X007091Y006721D01*
X007091Y006844D01*
X007044Y006957D01*
X006957Y007044D01*
X006844Y007091D01*
X006721Y007091D01*
X006607Y007044D01*
X006521Y006957D01*
X006492Y006888D01*
X006492Y007369D01*
X006369Y007492D01*
X005683Y008178D01*
X005692Y008201D01*
X005692Y008364D01*
X005630Y008514D01*
X005514Y008630D01*
X005364Y008692D01*
X005201Y008692D01*
X005050Y008630D01*
X004935Y008514D01*
X004872Y008364D01*
X004872Y008201D01*
X004935Y008050D01*
X005050Y007935D01*
X005201Y007872D01*
X005364Y007872D01*
X005386Y007881D01*
X006072Y007195D01*
X006072Y006369D01*
X005695Y005992D01*
X005572Y005869D01*
X005572Y005572D01*
X005514Y005630D01*
X005364Y005692D01*
X005201Y005692D01*
X005050Y005630D01*
X004935Y005514D01*
X004872Y005364D01*
X004872Y005201D01*
X004935Y005050D01*
X005050Y004935D01*
X005201Y004872D01*
X005364Y004872D01*
X005514Y004935D01*
X005572Y004992D01*
X005572Y002494D01*
X005572Y002320D01*
X006349Y001544D01*
X006349Y001471D01*
X006396Y001357D01*
X006482Y001271D01*
X006596Y001224D01*
X006719Y001224D01*
X006832Y001271D01*
X006907Y001346D01*
X006982Y001271D01*
X007096Y001224D01*
X007219Y001224D01*
X007332Y001271D01*
X007407Y001346D01*
X007482Y001271D01*
X007596Y001224D01*
X007719Y001224D01*
X007832Y001271D01*
X007919Y001357D01*
X007966Y001471D01*
X007966Y001594D01*
X007919Y001707D01*
X007832Y001794D01*
X007719Y001841D01*
X007646Y001841D01*
X007367Y002119D01*
X007367Y004320D01*
X007468Y004421D02*
X012124Y004421D01*
X012124Y004520D02*
X007567Y004520D01*
X007665Y004618D02*
X012124Y004618D01*
X012124Y004717D02*
X007764Y004717D01*
X007862Y004815D02*
X012124Y004815D01*
X012124Y004914D02*
X009462Y004914D01*
X009440Y004902D02*
X009497Y004932D01*
X009549Y004969D01*
X009595Y005015D01*
X009633Y005067D01*
X009662Y005125D01*
X009682Y005186D01*
X009692Y005250D01*
X009692Y005252D01*
X009312Y005252D01*
X009312Y004872D01*
X009314Y004872D01*
X009378Y004882D01*
X009440Y004902D01*
X009312Y004914D02*
X009252Y004914D01*
X009252Y004872D02*
X009252Y005252D01*
X008872Y005252D01*
X008872Y005250D01*
X008882Y005186D01*
X008902Y005125D01*
X008932Y005067D01*
X008969Y005015D01*
X009015Y004969D01*
X009067Y004932D01*
X009125Y004902D01*
X009186Y004882D01*
X009250Y004872D01*
X009252Y004872D01*
X009102Y004914D02*
X008464Y004914D01*
X008592Y005012D02*
X008972Y005012D01*
X008909Y005111D02*
X008655Y005111D01*
X008692Y005209D02*
X008879Y005209D01*
X008872Y005312D02*
X009252Y005312D01*
X009252Y005252D01*
X009312Y005252D01*
X009312Y005312D01*
X009252Y005312D01*
X009252Y005692D01*
X009250Y005692D01*
X009186Y005682D01*
X009125Y005662D01*
X009067Y005633D01*
X009015Y005595D01*
X008969Y005549D01*
X008932Y005497D01*
X008902Y005440D01*
X008882Y005378D01*
X008872Y005314D01*
X008872Y005312D01*
X008891Y005406D02*
X008674Y005406D01*
X008692Y005308D02*
X009252Y005308D01*
X009312Y005312D02*
X009312Y005692D01*
X009314Y005692D01*
X009378Y005682D01*
X009440Y005662D01*
X009497Y005633D01*
X009549Y005595D01*
X009595Y005549D01*
X009633Y005497D01*
X009662Y005440D01*
X009682Y005378D01*
X009692Y005314D01*
X009692Y005312D01*
X009312Y005312D01*
X009312Y005308D02*
X012124Y005308D01*
X012124Y005406D02*
X009673Y005406D01*
X009627Y005505D02*
X012124Y005505D01*
X012124Y005604D02*
X009537Y005604D01*
X009312Y005604D02*
X009252Y005604D01*
X009252Y005505D02*
X009312Y005505D01*
X009312Y005406D02*
X009252Y005406D01*
X009252Y005209D02*
X009312Y005209D01*
X009312Y005111D02*
X009252Y005111D01*
X009252Y005012D02*
X009312Y005012D01*
X009592Y005012D02*
X012124Y005012D01*
X012124Y005111D02*
X009655Y005111D01*
X009686Y005209D02*
X012124Y005209D01*
X012124Y005702D02*
X007992Y005702D01*
X007992Y005604D02*
X008024Y005604D01*
X007992Y005801D02*
X012124Y005801D01*
X012124Y005899D02*
X007992Y005899D01*
X007992Y005998D02*
X012124Y005998D01*
X012124Y006096D02*
X007992Y006096D01*
X007992Y006195D02*
X012124Y006195D01*
X012124Y006293D02*
X007992Y006293D01*
X007992Y006392D02*
X012124Y006392D01*
X012124Y006490D02*
X007992Y006490D01*
X007992Y006589D02*
X012124Y006589D01*
X012124Y006688D02*
X007992Y006688D01*
X007992Y006786D02*
X012124Y006786D01*
X012124Y006885D02*
X007992Y006885D01*
X007992Y006983D02*
X012124Y006983D01*
X012124Y007082D02*
X007992Y007082D01*
X007992Y007180D02*
X012124Y007180D01*
X012124Y007279D02*
X007992Y007279D01*
X007992Y007377D02*
X012124Y007377D01*
X012124Y007476D02*
X007992Y007476D01*
X007992Y007574D02*
X012124Y007574D01*
X012124Y007673D02*
X007992Y007673D01*
X007992Y007771D02*
X012124Y007771D01*
X012124Y007870D02*
X007992Y007870D01*
X007992Y007969D02*
X008016Y007969D01*
X007572Y007969D02*
X007548Y007969D01*
X007572Y007870D02*
X005991Y007870D01*
X006050Y007935D02*
X006201Y007872D01*
X006364Y007872D01*
X006514Y007935D01*
X006630Y008050D01*
X006692Y008201D01*
X006692Y008364D01*
X006630Y008514D01*
X006514Y008630D01*
X006364Y008692D01*
X006201Y008692D01*
X006050Y008630D01*
X005935Y008514D01*
X005872Y008364D01*
X005872Y008201D01*
X005935Y008050D01*
X006050Y007935D01*
X006016Y007969D02*
X005893Y007969D01*
X005927Y008067D02*
X005794Y008067D01*
X005887Y008166D02*
X005696Y008166D01*
X005692Y008264D02*
X005872Y008264D01*
X005872Y008363D02*
X005692Y008363D01*
X005652Y008461D02*
X005913Y008461D01*
X005980Y008560D02*
X005584Y008560D01*
X005445Y008658D02*
X006119Y008658D01*
X006445Y008658D02*
X007119Y008658D01*
X006980Y008560D02*
X006584Y008560D01*
X006652Y008461D02*
X006913Y008461D01*
X006872Y008363D02*
X006692Y008363D01*
X006692Y008264D02*
X006872Y008264D01*
X006887Y008166D02*
X006678Y008166D01*
X006637Y008067D02*
X006927Y008067D01*
X007016Y007969D02*
X006548Y007969D01*
X006188Y007673D02*
X007572Y007673D01*
X007572Y007771D02*
X006090Y007771D01*
X006287Y007574D02*
X007572Y007574D01*
X007572Y007476D02*
X006385Y007476D01*
X006484Y007377D02*
X007572Y007377D01*
X007572Y007279D02*
X006492Y007279D01*
X006492Y007180D02*
X007572Y007180D01*
X007572Y007082D02*
X006865Y007082D01*
X006699Y007082D02*
X006492Y007082D01*
X006492Y006983D02*
X006547Y006983D01*
X007017Y006983D02*
X007572Y006983D01*
X007572Y006885D02*
X007074Y006885D01*
X007091Y006786D02*
X007572Y006786D01*
X007572Y006688D02*
X007077Y006688D01*
X007025Y006589D02*
X007572Y006589D01*
X007572Y006490D02*
X006992Y006490D01*
X006992Y006392D02*
X007572Y006392D01*
X007572Y006293D02*
X006992Y006293D01*
X006992Y006195D02*
X007572Y006195D01*
X007572Y006096D02*
X006992Y006096D01*
X006992Y005998D02*
X007572Y005998D01*
X007572Y005899D02*
X006992Y005899D01*
X006992Y005801D02*
X007572Y005801D01*
X007572Y005702D02*
X006992Y005702D01*
X006992Y005604D02*
X007024Y005604D01*
X007541Y005604D02*
X007572Y005604D01*
X007961Y004914D02*
X008100Y004914D01*
X008634Y005505D02*
X008937Y005505D01*
X009027Y005604D02*
X008541Y005604D01*
X006072Y006392D02*
X001669Y006392D01*
X001682Y006405D02*
X001682Y006896D01*
X001683Y006897D01*
X001682Y006982D01*
X001682Y007069D01*
X001681Y007070D01*
X001681Y007071D01*
X001620Y007131D01*
X001559Y007192D01*
X001558Y007192D01*
X001557Y007193D01*
X001479Y007192D01*
X001488Y007201D01*
X001554Y007262D01*
X001559Y007262D01*
X001618Y007321D01*
X001679Y007377D01*
X001679Y007382D01*
X001682Y007385D01*
X001682Y007468D01*
X001685Y007551D01*
X001682Y007554D01*
X001682Y007635D01*
X001682Y007755D01*
X001682Y007929D01*
X001559Y008052D01*
X001484Y008052D01*
X001680Y008241D01*
X001684Y008415D01*
X001563Y008540D01*
X001389Y008544D01*
X001286Y008445D01*
X001189Y008542D01*
X001015Y008542D01*
X000765Y008542D01*
X000642Y008419D01*
X000522Y008299D01*
X000522Y008125D01*
X000522Y007809D01*
X000522Y007569D01*
X000522Y007395D01*
X000755Y007162D01*
X000655Y007062D01*
X000532Y006939D01*
X000532Y006699D01*
X000532Y006525D01*
X000725Y006332D01*
X000662Y006269D01*
X000542Y006149D01*
X000542Y005975D01*
X000542Y005735D01*
X000665Y005612D01*
X000785Y005492D01*
X000798Y005492D01*
X000542Y005237D01*
X000542Y005063D01*
X000665Y004940D01*
X000673Y004940D01*
X001262Y004940D01*
X001262Y004823D01*
X001324Y004761D01*
X000952Y004381D01*
X000952Y004395D01*
X001082Y004525D01*
X001082Y004699D01*
X000959Y004822D01*
X000785Y004822D01*
X000655Y004692D01*
X000532Y004569D01*
X000532Y004329D01*
X000532Y004155D01*
X000775Y003912D01*
X000906Y003912D01*
X000907Y003911D01*
X000992Y003912D01*
X001079Y003912D01*
X001080Y003913D01*
X001081Y003913D01*
X001142Y003975D01*
X001202Y004035D01*
X001202Y004036D01*
X001262Y004098D01*
X001262Y004033D01*
X001385Y003910D01*
X001559Y003910D01*
X001682Y004033D01*
X001682Y004526D01*
X001683Y004527D01*
X001682Y004612D01*
X001682Y004692D01*
X001681Y004692D01*
X001681Y004701D01*
X001620Y004761D01*
X001682Y004823D01*
X001682Y005482D01*
X001559Y005605D01*
X001552Y005605D01*
X001562Y005615D01*
X001682Y005735D01*
X001682Y005909D01*
X001682Y005975D01*
X001682Y006149D01*
X001549Y006282D01*
X001559Y006282D01*
X001682Y006405D01*
X001682Y006490D02*
X006072Y006490D01*
X006072Y006589D02*
X001682Y006589D01*
X001682Y006688D02*
X006072Y006688D01*
X006072Y006786D02*
X001682Y006786D01*
X001682Y006885D02*
X006072Y006885D01*
X006072Y006983D02*
X001682Y006983D01*
X001671Y007082D02*
X006072Y007082D01*
X006072Y007180D02*
X001571Y007180D01*
X001576Y007279D02*
X005989Y007279D01*
X005890Y007377D02*
X001679Y007377D01*
X001682Y007476D02*
X005792Y007476D01*
X005693Y007574D02*
X001682Y007574D01*
X001682Y007673D02*
X005594Y007673D01*
X005496Y007771D02*
X001682Y007771D01*
X001682Y007870D02*
X005397Y007870D01*
X005016Y007969D02*
X004548Y007969D01*
X004514Y007935D02*
X004630Y008050D01*
X004692Y008201D01*
X004692Y008364D01*
X004630Y008514D01*
X004514Y008630D01*
X004364Y008692D01*
X004201Y008692D01*
X004050Y008630D01*
X003935Y008514D01*
X003872Y008364D01*
X003872Y008201D01*
X003935Y008050D01*
X004050Y007935D01*
X004201Y007872D01*
X004364Y007872D01*
X004514Y007935D01*
X004637Y008067D02*
X004927Y008067D01*
X004887Y008166D02*
X004678Y008166D01*
X004692Y008264D02*
X004872Y008264D01*
X004872Y008363D02*
X004692Y008363D01*
X004652Y008461D02*
X004913Y008461D01*
X004980Y008560D02*
X004584Y008560D01*
X004445Y008658D02*
X005119Y008658D01*
X004119Y008658D02*
X003580Y008658D01*
X003584Y008560D02*
X003980Y008560D01*
X003913Y008461D02*
X003652Y008461D01*
X003692Y008363D02*
X003872Y008363D01*
X003872Y008264D02*
X003692Y008264D01*
X003678Y008166D02*
X003887Y008166D01*
X003927Y008067D02*
X003637Y008067D01*
X003548Y007969D02*
X004016Y007969D01*
X003016Y007969D02*
X002548Y007969D01*
X002514Y007935D02*
X002630Y008050D01*
X002692Y008201D01*
X002692Y008364D01*
X002630Y008514D01*
X002514Y008630D01*
X002364Y008692D01*
X002201Y008692D01*
X002050Y008630D01*
X001935Y008514D01*
X001872Y008364D01*
X001872Y008201D01*
X001935Y008050D01*
X002050Y007935D01*
X002201Y007872D01*
X002364Y007872D01*
X002514Y007935D01*
X002637Y008067D02*
X002927Y008067D01*
X002887Y008166D02*
X002678Y008166D01*
X002692Y008264D02*
X002872Y008264D01*
X002872Y008363D02*
X002692Y008363D01*
X002652Y008461D02*
X002913Y008461D01*
X002980Y008560D02*
X002584Y008560D01*
X002445Y008658D02*
X003072Y008658D01*
X003085Y008757D02*
X000432Y008757D01*
X000432Y008855D02*
X003184Y008855D01*
X003282Y008954D02*
X000432Y008954D01*
X000432Y008658D02*
X002119Y008658D01*
X001980Y008560D02*
X000432Y008560D01*
X000432Y008461D02*
X000684Y008461D01*
X000586Y008363D02*
X000432Y008363D01*
X000432Y008264D02*
X000522Y008264D01*
X000522Y008166D02*
X000432Y008166D01*
X000432Y008067D02*
X000522Y008067D01*
X000522Y007969D02*
X000432Y007969D01*
X000432Y007870D02*
X000522Y007870D01*
X000522Y007771D02*
X000432Y007771D01*
X000432Y007673D02*
X000522Y007673D01*
X000522Y007574D02*
X000432Y007574D01*
X000432Y007476D02*
X000522Y007476D01*
X000540Y007377D02*
X000432Y007377D01*
X000432Y007279D02*
X000639Y007279D01*
X000737Y007180D02*
X000432Y007180D01*
X000432Y007082D02*
X000675Y007082D01*
X000576Y006983D02*
X000432Y006983D01*
X000432Y006885D02*
X000532Y006885D01*
X000532Y006786D02*
X000432Y006786D01*
X000432Y006688D02*
X000532Y006688D01*
X000532Y006589D02*
X000432Y006589D01*
X000432Y006490D02*
X000567Y006490D01*
X000666Y006392D02*
X000432Y006392D01*
X000432Y006293D02*
X000686Y006293D01*
X000588Y006195D02*
X000432Y006195D01*
X000432Y006096D02*
X000542Y006096D01*
X000542Y005998D02*
X000432Y005998D01*
X000432Y005899D02*
X000542Y005899D01*
X000542Y005801D02*
X000432Y005801D01*
X000432Y005702D02*
X000575Y005702D01*
X000674Y005604D02*
X000432Y005604D01*
X000432Y005505D02*
X000772Y005505D01*
X000712Y005406D02*
X000432Y005406D01*
X000432Y005308D02*
X000613Y005308D01*
X000542Y005209D02*
X000432Y005209D01*
X000432Y005111D02*
X000542Y005111D01*
X000593Y005012D02*
X000432Y005012D01*
X000432Y004914D02*
X001262Y004914D01*
X001270Y004815D02*
X000966Y004815D01*
X001065Y004717D02*
X001281Y004717D01*
X001184Y004618D02*
X001082Y004618D01*
X001077Y004520D02*
X001088Y004520D01*
X000991Y004421D02*
X000978Y004421D01*
X000581Y004618D02*
X000432Y004618D01*
X000432Y004520D02*
X000532Y004520D01*
X000532Y004421D02*
X000432Y004421D01*
X000432Y004322D02*
X000532Y004322D01*
X000532Y004224D02*
X000432Y004224D01*
X000432Y004125D02*
X000562Y004125D01*
X000661Y004027D02*
X000432Y004027D01*
X000432Y003928D02*
X000759Y003928D01*
X001096Y003928D02*
X001367Y003928D01*
X001268Y004027D02*
X001194Y004027D01*
X001578Y003928D02*
X003825Y003928D01*
X003840Y003943D02*
X003621Y003724D01*
X003502Y003437D01*
X003502Y003127D01*
X003621Y002840D01*
X003840Y002621D01*
X004127Y002502D01*
X004437Y002502D01*
X004724Y002621D01*
X004943Y002840D01*
X005062Y003127D01*
X005062Y003437D01*
X004943Y003724D01*
X004724Y003943D01*
X004437Y004062D01*
X004127Y004062D01*
X003840Y003943D01*
X003727Y003830D02*
X000432Y003830D01*
X000432Y003731D02*
X003628Y003731D01*
X003583Y003633D02*
X000432Y003633D01*
X000432Y003534D02*
X003542Y003534D01*
X003502Y003436D02*
X000432Y003436D01*
X000432Y003337D02*
X003502Y003337D01*
X003502Y003239D02*
X000432Y003239D01*
X000432Y003140D02*
X003502Y003140D01*
X003538Y003041D02*
X000432Y003041D01*
X000432Y002943D02*
X003579Y002943D01*
X003619Y002844D02*
X002081Y002844D01*
X002047Y002858D02*
X001768Y002858D01*
X001510Y002752D01*
X001313Y002554D01*
X001206Y002297D01*
X001206Y002018D01*
X001313Y001760D01*
X001510Y001563D01*
X001768Y001456D01*
X002047Y001456D01*
X002304Y001563D01*
X002502Y001760D01*
X002608Y002018D01*
X002608Y002297D01*
X002502Y002554D01*
X002304Y002752D01*
X002047Y002858D01*
X002310Y002746D02*
X003716Y002746D01*
X003814Y002647D02*
X002409Y002647D01*
X002504Y002549D02*
X004015Y002549D01*
X004549Y002549D02*
X005572Y002549D01*
X005572Y002647D02*
X004750Y002647D01*
X004849Y002746D02*
X005572Y002746D01*
X005572Y002844D02*
X004945Y002844D01*
X004986Y002943D02*
X005572Y002943D01*
X005572Y003041D02*
X005027Y003041D01*
X005062Y003140D02*
X005572Y003140D01*
X005572Y003239D02*
X005062Y003239D01*
X005062Y003337D02*
X005572Y003337D01*
X005572Y003436D02*
X005062Y003436D01*
X005022Y003534D02*
X005572Y003534D01*
X005572Y003633D02*
X004981Y003633D01*
X004936Y003731D02*
X005572Y003731D01*
X005572Y003830D02*
X004838Y003830D01*
X004739Y003928D02*
X005572Y003928D01*
X005572Y004027D02*
X004522Y004027D01*
X004042Y004027D02*
X001676Y004027D01*
X001682Y004125D02*
X005572Y004125D01*
X005572Y004224D02*
X001682Y004224D01*
X001682Y004322D02*
X005572Y004322D01*
X005572Y004421D02*
X001682Y004421D01*
X001682Y004520D02*
X005572Y004520D01*
X005572Y004618D02*
X001682Y004618D01*
X001666Y004717D02*
X005572Y004717D01*
X005572Y004815D02*
X001675Y004815D01*
X001682Y004914D02*
X002100Y004914D01*
X002050Y004935D02*
X002201Y004872D01*
X002364Y004872D01*
X002514Y004935D01*
X002630Y005050D01*
X002692Y005201D01*
X002692Y005364D01*
X002630Y005514D01*
X002514Y005630D01*
X002364Y005692D01*
X002201Y005692D01*
X002050Y005630D01*
X001935Y005514D01*
X001872Y005364D01*
X001872Y005201D01*
X001935Y005050D01*
X002050Y004935D01*
X001972Y005012D02*
X001682Y005012D01*
X001682Y005111D02*
X001909Y005111D01*
X001872Y005209D02*
X001682Y005209D01*
X001682Y005308D02*
X001872Y005308D01*
X001890Y005406D02*
X001682Y005406D01*
X001659Y005505D02*
X001931Y005505D01*
X002024Y005604D02*
X001560Y005604D01*
X001649Y005702D02*
X005572Y005702D01*
X005572Y005604D02*
X005541Y005604D01*
X005572Y005801D02*
X001682Y005801D01*
X001682Y005899D02*
X005602Y005899D01*
X005701Y005998D02*
X001682Y005998D01*
X001682Y006096D02*
X005799Y006096D01*
X005898Y006195D02*
X001637Y006195D01*
X001570Y006293D02*
X005996Y006293D01*
X005024Y005604D02*
X004541Y005604D01*
X004514Y005630D02*
X004630Y005514D01*
X004692Y005364D01*
X004692Y005201D01*
X004630Y005050D01*
X004514Y004935D01*
X004364Y004872D01*
X004201Y004872D01*
X004050Y004935D01*
X003935Y005050D01*
X003872Y005201D01*
X003872Y005364D01*
X003935Y005514D01*
X004050Y005630D01*
X004201Y005692D01*
X004364Y005692D01*
X004514Y005630D01*
X004634Y005505D02*
X004931Y005505D01*
X004890Y005406D02*
X004674Y005406D01*
X004692Y005308D02*
X004872Y005308D01*
X004872Y005209D02*
X004692Y005209D01*
X004655Y005111D02*
X004909Y005111D01*
X004972Y005012D02*
X004592Y005012D01*
X004464Y004914D02*
X005100Y004914D01*
X005464Y004914D02*
X005572Y004914D01*
X004100Y004914D02*
X003464Y004914D01*
X003514Y004935D02*
X003630Y005050D01*
X003692Y005201D01*
X003692Y005364D01*
X003630Y005514D01*
X003514Y005630D01*
X003364Y005692D01*
X003201Y005692D01*
X003050Y005630D01*
X002935Y005514D01*
X002872Y005364D01*
X002872Y005201D01*
X002935Y005050D01*
X003050Y004935D01*
X003201Y004872D01*
X003364Y004872D01*
X003514Y004935D01*
X003592Y005012D02*
X003972Y005012D01*
X003909Y005111D02*
X003655Y005111D01*
X003692Y005209D02*
X003872Y005209D01*
X003872Y005308D02*
X003692Y005308D01*
X003674Y005406D02*
X003890Y005406D01*
X003931Y005505D02*
X003634Y005505D01*
X003541Y005604D02*
X004024Y005604D01*
X003024Y005604D02*
X002541Y005604D01*
X002634Y005505D02*
X002931Y005505D01*
X002890Y005406D02*
X002674Y005406D01*
X002692Y005308D02*
X002872Y005308D01*
X002872Y005209D02*
X002692Y005209D01*
X002655Y005111D02*
X002909Y005111D01*
X002972Y005012D02*
X002592Y005012D01*
X002464Y004914D02*
X003100Y004914D01*
X000778Y004815D02*
X000432Y004815D01*
X000432Y004717D02*
X000680Y004717D01*
X000673Y004940D02*
X000673Y004940D01*
X000432Y002844D02*
X001734Y002844D01*
X001504Y002746D02*
X000432Y002746D01*
X000432Y002647D02*
X001406Y002647D01*
X001310Y002549D02*
X000432Y002549D01*
X000432Y002450D02*
X001270Y002450D01*
X001229Y002352D02*
X000432Y002352D01*
X000432Y002253D02*
X001206Y002253D01*
X001206Y002155D02*
X000432Y002155D01*
X000432Y002056D02*
X001206Y002056D01*
X001231Y001957D02*
X000432Y001957D01*
X000432Y001859D02*
X001272Y001859D01*
X001313Y001760D02*
X000432Y001760D01*
X000432Y001662D02*
X001411Y001662D01*
X001509Y001563D02*
X000432Y001563D01*
X000432Y001465D02*
X001747Y001465D01*
X002068Y001465D02*
X006351Y001465D01*
X006329Y001563D02*
X002305Y001563D01*
X002403Y001662D02*
X006231Y001662D01*
X006132Y001760D02*
X002502Y001760D01*
X002543Y001859D02*
X006034Y001859D01*
X005935Y001957D02*
X002583Y001957D01*
X002608Y002056D02*
X005836Y002056D01*
X005738Y002155D02*
X002608Y002155D01*
X002608Y002253D02*
X005639Y002253D01*
X005572Y002352D02*
X002586Y002352D01*
X002545Y002450D02*
X005572Y002450D01*
X006392Y001366D02*
X000432Y001366D01*
X000432Y001268D02*
X006490Y001268D01*
X006824Y001268D02*
X006990Y001268D01*
X007324Y001268D02*
X007490Y001268D01*
X007824Y001268D02*
X009500Y001268D01*
X009401Y001366D02*
X007922Y001366D01*
X007963Y001465D02*
X009303Y001465D01*
X009204Y001563D02*
X007966Y001563D01*
X007937Y001662D02*
X009106Y001662D01*
X009007Y001760D02*
X007865Y001760D01*
X007627Y001859D02*
X008909Y001859D01*
X008810Y001957D02*
X007529Y001957D01*
X007430Y002056D02*
X008711Y002056D01*
X008613Y002155D02*
X007367Y002155D01*
X007367Y002253D02*
X008514Y002253D01*
X008416Y002352D02*
X007367Y002352D01*
X007367Y002450D02*
X008317Y002450D01*
X009598Y001169D02*
X000432Y001169D01*
X000432Y001071D02*
X009697Y001071D01*
X009795Y000972D02*
X000432Y000972D01*
X000432Y000873D02*
X009894Y000873D01*
X009974Y000775D02*
X000432Y000775D01*
X000432Y000676D02*
X009992Y000676D01*
X010050Y000578D02*
X000432Y000578D01*
X000432Y000479D02*
X010208Y000479D01*
X010357Y000479D02*
X012124Y000479D01*
X012124Y000578D02*
X010514Y000578D01*
X010572Y000676D02*
X012124Y000676D01*
X012124Y000775D02*
X010591Y000775D01*
X010578Y000873D02*
X012124Y000873D01*
X012124Y000972D02*
X010529Y000972D01*
X010392Y001071D02*
X012124Y001071D01*
X012124Y001169D02*
X010192Y001169D01*
X010094Y001268D02*
X012124Y001268D01*
X012124Y001366D02*
X009995Y001366D01*
X010055Y002056D02*
X010137Y002056D01*
X009364Y007872D02*
X009201Y007872D01*
X009050Y007935D01*
X008935Y008050D01*
X008872Y008201D01*
X008872Y008364D01*
X008935Y008514D01*
X009050Y008630D01*
X009201Y008692D01*
X009364Y008692D01*
X009514Y008630D01*
X009630Y008514D01*
X009692Y008364D01*
X009692Y008201D01*
X009630Y008050D01*
X009514Y007935D01*
X009364Y007872D01*
X009548Y007969D02*
X012124Y007969D01*
X012124Y008067D02*
X009637Y008067D01*
X009678Y008166D02*
X012124Y008166D01*
X012124Y008264D02*
X009692Y008264D01*
X009692Y008363D02*
X012124Y008363D01*
X012124Y008461D02*
X009652Y008461D01*
X009584Y008560D02*
X012124Y008560D01*
X012124Y008658D02*
X009445Y008658D01*
X009119Y008658D02*
X008445Y008658D01*
X008584Y008560D02*
X008980Y008560D01*
X008913Y008461D02*
X008652Y008461D01*
X008692Y008363D02*
X008872Y008363D01*
X008872Y008264D02*
X008692Y008264D01*
X008678Y008166D02*
X008887Y008166D01*
X008927Y008067D02*
X008637Y008067D01*
X008548Y007969D02*
X009016Y007969D01*
X008119Y008658D02*
X007992Y008658D01*
X007979Y008757D02*
X012124Y008757D01*
X012124Y008855D02*
X007881Y008855D01*
X007782Y008954D02*
X012124Y008954D01*
X007484Y008658D02*
X007445Y008658D01*
X002016Y007969D02*
X001643Y007969D01*
X001499Y008067D02*
X001927Y008067D01*
X001887Y008166D02*
X001602Y008166D01*
X001681Y008264D02*
X001872Y008264D01*
X001872Y008363D02*
X001683Y008363D01*
X001639Y008461D02*
X001913Y008461D01*
X001304Y008461D02*
X001270Y008461D01*
D14*
X006782Y006782D03*
X010657Y007532D03*
X011157Y007532D03*
X011657Y007532D03*
X010157Y003032D03*
X010157Y002157D03*
X010282Y001782D03*
X010282Y000782D03*
X007657Y001532D03*
X007157Y001532D03*
X006657Y001532D03*
X008157Y002907D03*
X008907Y002907D03*
M02*
