G75*
G70*
%OFA0B0*%
%FSLAX24Y24*%
%IPPOS*%
%LPD*%
%AMOC8*
5,1,8,0,0,1.08239X$1,22.5*
%
%ADD10C,0.0000*%
%ADD11C,0.0110*%
%ADD12C,0.0050*%
%ADD13C,0.0060*%
%ADD14C,0.0080*%
%ADD15R,0.0384X0.2047*%
%ADD16C,0.0020*%
D10*
X000282Y000282D02*
X000282Y009152D01*
X012274Y009152D01*
X012274Y000282D01*
X000282Y000282D01*
X001356Y002157D02*
X001358Y002204D01*
X001364Y002250D01*
X001374Y002296D01*
X001387Y002341D01*
X001405Y002384D01*
X001426Y002426D01*
X001450Y002466D01*
X001478Y002503D01*
X001509Y002538D01*
X001543Y002571D01*
X001579Y002600D01*
X001618Y002626D01*
X001659Y002649D01*
X001702Y002668D01*
X001746Y002684D01*
X001791Y002696D01*
X001837Y002704D01*
X001884Y002708D01*
X001930Y002708D01*
X001977Y002704D01*
X002023Y002696D01*
X002068Y002684D01*
X002112Y002668D01*
X002155Y002649D01*
X002196Y002626D01*
X002235Y002600D01*
X002271Y002571D01*
X002305Y002538D01*
X002336Y002503D01*
X002364Y002466D01*
X002388Y002426D01*
X002409Y002384D01*
X002427Y002341D01*
X002440Y002296D01*
X002450Y002250D01*
X002456Y002204D01*
X002458Y002157D01*
X002456Y002110D01*
X002450Y002064D01*
X002440Y002018D01*
X002427Y001973D01*
X002409Y001930D01*
X002388Y001888D01*
X002364Y001848D01*
X002336Y001811D01*
X002305Y001776D01*
X002271Y001743D01*
X002235Y001714D01*
X002196Y001688D01*
X002155Y001665D01*
X002112Y001646D01*
X002068Y001630D01*
X002023Y001618D01*
X001977Y001610D01*
X001930Y001606D01*
X001884Y001606D01*
X001837Y001610D01*
X001791Y001618D01*
X001746Y001630D01*
X001702Y001646D01*
X001659Y001665D01*
X001618Y001688D01*
X001579Y001714D01*
X001543Y001743D01*
X001509Y001776D01*
X001478Y001811D01*
X001450Y001848D01*
X001426Y001888D01*
X001405Y001930D01*
X001387Y001973D01*
X001374Y002018D01*
X001364Y002064D01*
X001358Y002110D01*
X001356Y002157D01*
X003652Y003282D02*
X003654Y003332D01*
X003660Y003382D01*
X003670Y003431D01*
X003684Y003479D01*
X003701Y003526D01*
X003722Y003571D01*
X003747Y003615D01*
X003775Y003656D01*
X003807Y003695D01*
X003841Y003732D01*
X003878Y003766D01*
X003918Y003796D01*
X003960Y003823D01*
X004004Y003847D01*
X004050Y003868D01*
X004097Y003884D01*
X004145Y003897D01*
X004195Y003906D01*
X004244Y003911D01*
X004295Y003912D01*
X004345Y003909D01*
X004394Y003902D01*
X004443Y003891D01*
X004491Y003876D01*
X004537Y003858D01*
X004582Y003836D01*
X004625Y003810D01*
X004666Y003781D01*
X004705Y003749D01*
X004741Y003714D01*
X004773Y003676D01*
X004803Y003636D01*
X004830Y003593D01*
X004853Y003549D01*
X004872Y003503D01*
X004888Y003455D01*
X004900Y003406D01*
X004908Y003357D01*
X004912Y003307D01*
X004912Y003257D01*
X004908Y003207D01*
X004900Y003158D01*
X004888Y003109D01*
X004872Y003061D01*
X004853Y003015D01*
X004830Y002971D01*
X004803Y002928D01*
X004773Y002888D01*
X004741Y002850D01*
X004705Y002815D01*
X004666Y002783D01*
X004625Y002754D01*
X004582Y002728D01*
X004537Y002706D01*
X004491Y002688D01*
X004443Y002673D01*
X004394Y002662D01*
X004345Y002655D01*
X004295Y002652D01*
X004244Y002653D01*
X004195Y002658D01*
X004145Y002667D01*
X004097Y002680D01*
X004050Y002696D01*
X004004Y002717D01*
X003960Y002741D01*
X003918Y002768D01*
X003878Y002798D01*
X003841Y002832D01*
X003807Y002869D01*
X003775Y002908D01*
X003747Y002949D01*
X003722Y002993D01*
X003701Y003038D01*
X003684Y003085D01*
X003670Y003133D01*
X003660Y003182D01*
X003654Y003232D01*
X003652Y003282D01*
D11*
X009712Y003541D02*
X009810Y003443D01*
X010204Y003443D01*
X010302Y003541D01*
X010302Y003738D01*
X010204Y003836D01*
X010007Y003836D01*
X010007Y003639D01*
X009810Y003836D02*
X009712Y003738D01*
X009712Y003541D01*
X009810Y002836D02*
X009909Y002836D01*
X010007Y002738D01*
X010007Y002443D01*
X010302Y002443D02*
X009712Y002443D01*
X009712Y002738D01*
X009810Y002836D01*
X010007Y002738D02*
X010105Y002836D01*
X010204Y002836D01*
X010302Y002738D01*
X010302Y002443D01*
X010302Y004443D02*
X009712Y004443D01*
X010105Y004639D02*
X010302Y004836D01*
X009712Y004836D01*
X010105Y004639D02*
X010302Y004443D01*
X010302Y005443D02*
X009712Y005443D01*
X009712Y005738D01*
X009810Y005836D01*
X010007Y005836D01*
X010105Y005738D01*
X010105Y005443D01*
X010105Y005639D02*
X010302Y005836D01*
D12*
X004599Y004657D02*
X004599Y004599D01*
X004365Y004366D01*
X004365Y004307D01*
X004230Y004307D02*
X003997Y004307D01*
X004230Y004541D01*
X004230Y004599D01*
X004172Y004657D01*
X004055Y004657D01*
X003997Y004599D01*
X003862Y004657D02*
X003629Y004657D01*
X003629Y004482D01*
X003745Y004541D01*
X003804Y004541D01*
X003862Y004482D01*
X003862Y004366D01*
X003804Y004307D01*
X003687Y004307D01*
X003629Y004366D01*
X003494Y004307D02*
X003260Y004307D01*
X003377Y004307D02*
X003377Y004657D01*
X003260Y004541D01*
X003126Y004482D02*
X003126Y004366D01*
X003067Y004307D01*
X002950Y004307D01*
X002892Y004366D01*
X002892Y004482D02*
X003009Y004541D01*
X003067Y004541D01*
X003126Y004482D01*
X002892Y004482D02*
X002892Y004657D01*
X003126Y004657D01*
X002389Y004599D02*
X002389Y004482D01*
X002331Y004424D01*
X002155Y004424D01*
X002155Y004307D02*
X002155Y004657D01*
X002331Y004657D01*
X002389Y004599D01*
X002272Y004424D02*
X002389Y004307D01*
X002021Y004307D02*
X001787Y004307D01*
X001787Y004657D01*
X002021Y004657D01*
X001904Y004482D02*
X001787Y004482D01*
X001652Y004366D02*
X001652Y004599D01*
X001594Y004657D01*
X001419Y004657D01*
X001419Y004307D01*
X001594Y004307D01*
X001652Y004366D01*
X001284Y004307D02*
X001167Y004424D01*
X001226Y004424D02*
X001051Y004424D01*
X001051Y004307D02*
X001051Y004657D01*
X001226Y004657D01*
X001284Y004599D01*
X001284Y004482D01*
X001226Y004424D01*
X000916Y004366D02*
X000916Y004599D01*
X000857Y004657D01*
X000741Y004657D01*
X000682Y004599D01*
X000682Y004366D01*
X000741Y004307D01*
X000857Y004307D01*
X000916Y004366D01*
X004365Y004657D02*
X004599Y004657D01*
D13*
X004632Y005832D02*
X008932Y005832D01*
X008949Y005834D01*
X008966Y005838D01*
X008982Y005845D01*
X008996Y005855D01*
X009009Y005868D01*
X009019Y005882D01*
X009026Y005898D01*
X009030Y005915D01*
X009032Y005932D01*
X009032Y006332D01*
X009782Y005632D02*
X009782Y007932D01*
X001782Y007932D01*
X001782Y007182D01*
X001821Y007180D01*
X001860Y007174D01*
X001898Y007165D01*
X001935Y007152D01*
X001971Y007135D01*
X002004Y007115D01*
X002036Y007091D01*
X002065Y007065D01*
X002091Y007036D01*
X002115Y007004D01*
X002135Y006971D01*
X002152Y006935D01*
X002165Y006898D01*
X002174Y006860D01*
X002180Y006821D01*
X002182Y006782D01*
X002180Y006743D01*
X002174Y006704D01*
X002165Y006666D01*
X002152Y006629D01*
X002135Y006593D01*
X002115Y006560D01*
X002091Y006528D01*
X002065Y006499D01*
X002036Y006473D01*
X002004Y006449D01*
X001971Y006429D01*
X001935Y006412D01*
X001898Y006399D01*
X001860Y006390D01*
X001821Y006384D01*
X001782Y006382D01*
X001782Y005632D01*
X009782Y005632D01*
X009032Y007232D02*
X009032Y007632D01*
X009030Y007649D01*
X009026Y007666D01*
X009019Y007682D01*
X009009Y007696D01*
X008996Y007709D01*
X008982Y007719D01*
X008966Y007726D01*
X008949Y007730D01*
X008932Y007732D01*
X004632Y007732D01*
X004615Y007730D01*
X004598Y007726D01*
X004582Y007719D01*
X004568Y007709D01*
X004555Y007696D01*
X004545Y007682D01*
X004538Y007666D01*
X004534Y007649D01*
X004532Y007632D01*
X004532Y007232D01*
X004532Y006332D02*
X004532Y005932D01*
X004534Y005915D01*
X004538Y005898D01*
X004545Y005882D01*
X004555Y005868D01*
X004568Y005855D01*
X004582Y005845D01*
X004598Y005838D01*
X004615Y005834D01*
X004632Y005832D01*
X006532Y006532D02*
X006532Y006782D01*
X006532Y007032D01*
X006682Y007032D02*
X006682Y006532D01*
X006882Y006532D01*
X006882Y007032D01*
X006682Y007032D01*
X007032Y007032D02*
X007032Y006782D01*
X007032Y006532D01*
D14*
X005742Y004563D02*
X005742Y004283D01*
X005742Y004423D02*
X005322Y004423D01*
X005462Y004283D01*
X005392Y004102D02*
X005532Y004102D01*
X005602Y004032D01*
X005602Y003822D01*
X005742Y003822D02*
X005322Y003822D01*
X005322Y004032D01*
X005392Y004102D01*
X005602Y003962D02*
X005742Y004102D01*
X006286Y003306D02*
X006286Y001259D01*
X009278Y001259D01*
X009549Y001103D02*
X009689Y001103D01*
X009619Y001103D02*
X009619Y001523D01*
X009549Y001523D02*
X009689Y001523D01*
X009856Y001453D02*
X009856Y001173D01*
X009926Y001103D01*
X010066Y001103D01*
X010136Y001173D01*
X010316Y001103D02*
X010596Y001383D01*
X010596Y001453D01*
X010526Y001523D01*
X010386Y001523D01*
X010316Y001453D01*
X010136Y001453D02*
X010066Y001523D01*
X009926Y001523D01*
X009856Y001453D01*
X010316Y001103D02*
X010596Y001103D01*
X009278Y003306D02*
X006286Y003306D01*
X004423Y001993D02*
X004423Y001572D01*
X004283Y001572D02*
X004563Y001572D01*
X004283Y001852D02*
X004423Y001993D01*
X004102Y001922D02*
X004032Y001993D01*
X003892Y001993D01*
X003822Y001922D01*
X003822Y001642D01*
X003892Y001572D01*
X004032Y001572D01*
X004102Y001642D01*
X004032Y000993D02*
X003892Y000993D01*
X003822Y000922D01*
X003822Y000642D01*
X003892Y000572D01*
X004032Y000572D01*
X004102Y000642D01*
X004283Y000572D02*
X004563Y000852D01*
X004563Y000922D01*
X004493Y000993D01*
X004353Y000993D01*
X004283Y000922D01*
X004102Y000922D02*
X004032Y000993D01*
X004283Y000572D02*
X004563Y000572D01*
X003688Y005747D02*
X003408Y005747D01*
X003548Y005747D02*
X003548Y006168D01*
X003408Y006027D01*
X003227Y006097D02*
X003227Y005817D01*
X003157Y005747D01*
X003017Y005747D01*
X002947Y005817D01*
X002947Y006097D01*
X003017Y006168D01*
X003157Y006168D01*
X003227Y006097D01*
X003087Y005887D02*
X003227Y005747D01*
X001592Y006297D02*
X001592Y006437D01*
X001592Y006367D02*
X001172Y006367D01*
X001172Y006297D02*
X001172Y006437D01*
X001242Y006604D02*
X001522Y006604D01*
X001592Y006674D01*
X001592Y006814D01*
X001522Y006884D01*
X001592Y007064D02*
X001592Y007345D01*
X001592Y007205D02*
X001172Y007205D01*
X001312Y007064D01*
X001242Y006884D02*
X001172Y006814D01*
X001172Y006674D01*
X001242Y006604D01*
X002447Y007392D02*
X002517Y007322D01*
X002657Y007322D01*
X002727Y007392D01*
X002908Y007392D02*
X002978Y007322D01*
X003118Y007322D01*
X003188Y007392D01*
X003188Y007532D01*
X003118Y007602D01*
X003048Y007602D01*
X002908Y007532D01*
X002908Y007743D01*
X003188Y007743D01*
X002727Y007672D02*
X002657Y007743D01*
X002517Y007743D01*
X002447Y007672D01*
X002447Y007392D01*
X011572Y006947D02*
X011572Y006807D01*
X011642Y006737D01*
X011782Y006877D02*
X011782Y006947D01*
X011852Y007017D01*
X011922Y007017D01*
X011992Y006947D01*
X011992Y006807D01*
X011922Y006737D01*
X011922Y006557D02*
X011992Y006487D01*
X011992Y006346D01*
X011922Y006276D01*
X011642Y006276D01*
X011572Y006346D01*
X011572Y006487D01*
X011642Y006557D01*
X011572Y006947D02*
X011642Y007017D01*
X011712Y007017D01*
X011782Y006947D01*
X011642Y007947D02*
X011922Y007947D01*
X011992Y008017D01*
X011992Y008157D01*
X011922Y008227D01*
X011782Y008408D02*
X011782Y008688D01*
X011572Y008618D02*
X011782Y008408D01*
X011642Y008227D02*
X011572Y008157D01*
X011572Y008017D01*
X011642Y007947D01*
X011572Y008618D02*
X011992Y008618D01*
D15*
X009126Y002282D03*
D16*
X008132Y005982D02*
X005432Y005982D01*
X005432Y006282D02*
X008132Y006282D01*
X008132Y005982D02*
X008188Y005984D01*
X008243Y005990D01*
X008298Y005999D01*
X008352Y006013D01*
X008405Y006030D01*
X008456Y006051D01*
X008506Y006075D01*
X008554Y006103D01*
X008601Y006134D01*
X008645Y006168D01*
X008686Y006205D01*
X008725Y006245D01*
X008761Y006287D01*
X008793Y006332D01*
X008350Y007232D02*
X008316Y007247D01*
X008280Y007260D01*
X008244Y007269D01*
X008207Y007276D01*
X008170Y007281D01*
X008132Y007282D01*
X005432Y007282D01*
X005432Y007582D02*
X008132Y007582D01*
X008350Y006332D02*
X008316Y006317D01*
X008280Y006304D01*
X008244Y006295D01*
X008207Y006288D01*
X008170Y006283D01*
X008132Y006282D01*
X008793Y007232D02*
X008761Y007277D01*
X008725Y007319D01*
X008686Y007359D01*
X008644Y007396D01*
X008601Y007430D01*
X008554Y007461D01*
X008506Y007489D01*
X008456Y007513D01*
X008405Y007534D01*
X008352Y007551D01*
X008298Y007565D01*
X008243Y007574D01*
X008188Y007580D01*
X008132Y007582D01*
X007232Y006782D02*
X007032Y006782D01*
X006532Y006782D02*
X006332Y006782D01*
X005432Y007582D02*
X005376Y007580D01*
X005321Y007574D01*
X005266Y007565D01*
X005212Y007551D01*
X005159Y007534D01*
X005108Y007513D01*
X005058Y007489D01*
X005010Y007461D01*
X004963Y007430D01*
X004919Y007396D01*
X004878Y007359D01*
X004839Y007319D01*
X004803Y007277D01*
X004771Y007232D01*
X005214Y007232D02*
X005248Y007247D01*
X005284Y007260D01*
X005320Y007269D01*
X005357Y007276D01*
X005394Y007281D01*
X005432Y007282D01*
X005214Y006332D02*
X005248Y006317D01*
X005284Y006304D01*
X005320Y006295D01*
X005357Y006288D01*
X005394Y006283D01*
X005432Y006282D01*
X005432Y005982D02*
X005376Y005984D01*
X005321Y005990D01*
X005266Y005999D01*
X005212Y006013D01*
X005159Y006030D01*
X005108Y006051D01*
X005058Y006075D01*
X005010Y006103D01*
X004963Y006134D01*
X004920Y006168D01*
X004878Y006205D01*
X004839Y006245D01*
X004803Y006287D01*
X004771Y006332D01*
M02*
