%
M48
M72
T01C0.0197
T02C0.0320
T03C0.1102
T04C0.1260
%
T01
X5407Y2032
X7532Y1282
X9157Y2032
X9532Y2407
X9907Y2782
X4782Y3282
X3907Y3782
X1282Y3782
X1282Y4782
X5032Y5782
X5032Y6407
X4907Y7657
X8282Y5782
X9782Y6282
X10782Y6532
X12782Y5782
X15782Y6282
T02
X15782Y7282
X14782Y7282
X13782Y7282
X12782Y7282
X11782Y7282
X16782Y7282
X17782Y7282
X18782Y7282
X18782Y4282
X17782Y4282
X16782Y4282
X15782Y4282
X14782Y4282
X13782Y4282
X12782Y4282
X11782Y4282
T03
X11407Y1157
T04
X13782Y2282
M30
