G75*
G70*
%OFA0B0*%
%FSLAX24Y24*%
%IPPOS*%
%LPD*%
%AMOC8*
5,1,8,0,0,1.08239X$1,22.5*
%
%ADD10C,0.0000*%
D10*
X000282Y000282D02*
X000282Y009152D01*
X012274Y009152D01*
X012274Y000282D01*
X000282Y000282D01*
X001356Y002157D02*
X001358Y002204D01*
X001364Y002250D01*
X001374Y002296D01*
X001387Y002341D01*
X001405Y002384D01*
X001426Y002426D01*
X001450Y002466D01*
X001478Y002503D01*
X001509Y002538D01*
X001543Y002571D01*
X001579Y002600D01*
X001618Y002626D01*
X001659Y002649D01*
X001702Y002668D01*
X001746Y002684D01*
X001791Y002696D01*
X001837Y002704D01*
X001884Y002708D01*
X001930Y002708D01*
X001977Y002704D01*
X002023Y002696D01*
X002068Y002684D01*
X002112Y002668D01*
X002155Y002649D01*
X002196Y002626D01*
X002235Y002600D01*
X002271Y002571D01*
X002305Y002538D01*
X002336Y002503D01*
X002364Y002466D01*
X002388Y002426D01*
X002409Y002384D01*
X002427Y002341D01*
X002440Y002296D01*
X002450Y002250D01*
X002456Y002204D01*
X002458Y002157D01*
X002456Y002110D01*
X002450Y002064D01*
X002440Y002018D01*
X002427Y001973D01*
X002409Y001930D01*
X002388Y001888D01*
X002364Y001848D01*
X002336Y001811D01*
X002305Y001776D01*
X002271Y001743D01*
X002235Y001714D01*
X002196Y001688D01*
X002155Y001665D01*
X002112Y001646D01*
X002068Y001630D01*
X002023Y001618D01*
X001977Y001610D01*
X001930Y001606D01*
X001884Y001606D01*
X001837Y001610D01*
X001791Y001618D01*
X001746Y001630D01*
X001702Y001646D01*
X001659Y001665D01*
X001618Y001688D01*
X001579Y001714D01*
X001543Y001743D01*
X001509Y001776D01*
X001478Y001811D01*
X001450Y001848D01*
X001426Y001888D01*
X001405Y001930D01*
X001387Y001973D01*
X001374Y002018D01*
X001364Y002064D01*
X001358Y002110D01*
X001356Y002157D01*
X003652Y003282D02*
X003654Y003332D01*
X003660Y003382D01*
X003670Y003431D01*
X003684Y003479D01*
X003701Y003526D01*
X003722Y003571D01*
X003747Y003615D01*
X003775Y003656D01*
X003807Y003695D01*
X003841Y003732D01*
X003878Y003766D01*
X003918Y003796D01*
X003960Y003823D01*
X004004Y003847D01*
X004050Y003868D01*
X004097Y003884D01*
X004145Y003897D01*
X004195Y003906D01*
X004244Y003911D01*
X004295Y003912D01*
X004345Y003909D01*
X004394Y003902D01*
X004443Y003891D01*
X004491Y003876D01*
X004537Y003858D01*
X004582Y003836D01*
X004625Y003810D01*
X004666Y003781D01*
X004705Y003749D01*
X004741Y003714D01*
X004773Y003676D01*
X004803Y003636D01*
X004830Y003593D01*
X004853Y003549D01*
X004872Y003503D01*
X004888Y003455D01*
X004900Y003406D01*
X004908Y003357D01*
X004912Y003307D01*
X004912Y003257D01*
X004908Y003207D01*
X004900Y003158D01*
X004888Y003109D01*
X004872Y003061D01*
X004853Y003015D01*
X004830Y002971D01*
X004803Y002928D01*
X004773Y002888D01*
X004741Y002850D01*
X004705Y002815D01*
X004666Y002783D01*
X004625Y002754D01*
X004582Y002728D01*
X004537Y002706D01*
X004491Y002688D01*
X004443Y002673D01*
X004394Y002662D01*
X004345Y002655D01*
X004295Y002652D01*
X004244Y002653D01*
X004195Y002658D01*
X004145Y002667D01*
X004097Y002680D01*
X004050Y002696D01*
X004004Y002717D01*
X003960Y002741D01*
X003918Y002768D01*
X003878Y002798D01*
X003841Y002832D01*
X003807Y002869D01*
X003775Y002908D01*
X003747Y002949D01*
X003722Y002993D01*
X003701Y003038D01*
X003684Y003085D01*
X003670Y003133D01*
X003660Y003182D01*
X003654Y003232D01*
X003652Y003282D01*
M02*
